<svg id="tfm-kv" xmlns="http://www.w3.org/2000/svg" width="323.444" height="191.191" viewBox="0 0 323.444 191.191">
  <g id="Group_486" data-name="Group 486" transform="translate(0 0)">
    <g id="Group_485" data-name="Group 485">
      <g id="Group_484" data-name="Group 484">
        <path id="Path_6246" data-name="Path 6246" d="M-340.607,1971.265l-.791-29.938-13.716-12.265-101.564,28.685v23.072l5.89,5.825-5.89,1.688v18.615l4.766,4.713-4.766,1.366v18.615l13.44,13.291,160.685-46.036V1978.28l-11.877-11.745-14.9,4.269v3.985l-3.079-3.1-4.332,1.241.05,5.863-7.436-3.748-5.087,1.459v5.691" transform="translate(456.678 -1928.534)"/>
        <g id="Group_478" data-name="Group 478">
          <path id="Path_6247" data-name="Path 6247" d="M-355.111,1951.039l-101.567,29.1v-23.181l101.567-29.1Z" transform="translate(456.678 -1927.858)" fill="#e2262c"/>
          <g id="Group_477" data-name="Group 477" transform="translate(4.31 6.499)">
            <path id="Path_6248" data-name="Path 6248" d="M-442.65,1999.11l-4.2,1.2v-2.143l10.828-3.1v2.144l-4.2,1.2v11.651l-2.437.7Z" transform="translate(446.846 -1972.106)" fill="#fff"/>
            <path id="Path_6249" data-name="Path 6249" d="M-417.246,1990.7l2.107-.6,5.9,12.1-2.784.8-1.276-2.79-5.936,1.7-1.237,3.511-2.726.781Zm3.094,7.647-2.108-5.007-2.146,6.226Z" transform="translate(433.566 -1969.316)" fill="#fff"/>
            <path id="Path_6250" data-name="Path 6250" d="M-388.194,1988.48l-5.143-6.339,2.978-.853,3.442,4.82,3.481-6.8,2.823-.809-5.144,9.287v5.981l-2.436.7Z" transform="translate(416.791 -1962.799)" fill="#fff"/>
            <path id="Path_6251" data-name="Path 6251" d="M-359.944,1976.349l2.436-.7v11.612l5.82-1.667v2.182l-8.256,2.366Z" transform="translate(398.036 -1961.202)" fill="#fff"/>
            <path id="Path_6252" data-name="Path 6252" d="M-338.461,1974.338a9.018,9.018,0,0,1,.551-3.148,9.6,9.6,0,0,1,1.528-2.708,10.15,10.15,0,0,1,2.321-2.107,10.483,10.483,0,0,1,2.929-1.346,8.176,8.176,0,0,1,2.958-.341,4.952,4.952,0,0,1,2.34.771,4.339,4.339,0,0,1,1.537,1.829,6.64,6.64,0,0,1,.551,2.833,8.9,8.9,0,0,1-.551,3.109,9.93,9.93,0,0,1-1.537,2.74,10.516,10.516,0,0,1-2.34,2.17,10.2,10.2,0,0,1-2.958,1.384,7.564,7.564,0,0,1-2.929.3,4.913,4.913,0,0,1-2.321-.835,4.6,4.6,0,0,1-1.528-1.861A6.535,6.535,0,0,1-338.461,1974.338Zm2.649-.759a5.109,5.109,0,0,0,.338,1.939,3.22,3.22,0,0,0,.967,1.331,3.1,3.1,0,0,0,1.489.635,4.44,4.44,0,0,0,1.9-.166,6.112,6.112,0,0,0,1.914-.928,6.7,6.7,0,0,0,1.5-1.491,6.835,6.835,0,0,0,.967-1.884,6.761,6.761,0,0,0,.338-2.133,4.935,4.935,0,0,0-.338-1.891,3.3,3.3,0,0,0-.957-1.323,3.083,3.083,0,0,0-1.489-.645,4.44,4.44,0,0,0-1.933.164,5.974,5.974,0,0,0-1.924.941,6.776,6.776,0,0,0-1.479,1.5,6.955,6.955,0,0,0-.957,1.872A6.545,6.545,0,0,0-335.812,1973.579Z" transform="translate(385.969 -1955.03)" fill="#fff"/>
            <path id="Path_6253" data-name="Path 6253" d="M-297.745,1957.235l4.757-1.363a8.746,8.746,0,0,1,1.876-.333,3.881,3.881,0,0,1,1.614.21,2.309,2.309,0,0,1,1.131.9,3.084,3.084,0,0,1,.425,1.729,4.533,4.533,0,0,1-.841,2.686,6.25,6.25,0,0,1-2.292,1.933l3.654,5.071-2.939.843-3.171-4.937-1.779.51v5.845l-2.436.7Zm4.428,4.674a8.369,8.369,0,0,0,1.044-.377,4.106,4.106,0,0,0,.938-.561,2.8,2.8,0,0,0,.686-.811,2.192,2.192,0,0,0,.27-1.1,1.264,1.264,0,0,0-.252-.853,1.259,1.259,0,0,0-.638-.392,2.282,2.282,0,0,0-.88-.04,6.485,6.485,0,0,0-.957.2l-2.2.632v3.877Z" transform="translate(363.1 -1949.9)" fill="#fff"/>
            <path id="Path_6254" data-name="Path 6254" d="M-268.468,1949.712l2.243-.643-1.644,5.615-1.953.559Z" transform="translate(347.416 -1946.271)" fill="#fff"/>
            <path id="Path_6255" data-name="Path 6255" d="M-248.892,1945.481a2.037,2.037,0,0,0-1.092-.535,3.006,3.006,0,0,0-1.421.066,4.3,4.3,0,0,0-.851.351,3.739,3.739,0,0,0-.773.553,2.776,2.776,0,0,0-.571.748,1.974,1.974,0,0,0-.222.931,1.27,1.27,0,0,0,.194.743,1.159,1.159,0,0,0,.531.413,2.765,2.765,0,0,0,.822.173q.483.037,1.063.046.657.026,1.363.1a3.912,3.912,0,0,1,1.3.35,2.342,2.342,0,0,1,.967.853,2.87,2.87,0,0,1,.377,1.587,5.144,5.144,0,0,1-.406,2.055,5.951,5.951,0,0,1-1.083,1.684,6.782,6.782,0,0,1-1.585,1.272,8.284,8.284,0,0,1-1.914.822,6.871,6.871,0,0,1-2.611.251,3.538,3.538,0,0,1-2.088-.873l1.74-2.135a2.377,2.377,0,0,0,1.344.725,3.466,3.466,0,0,0,1.653-.064,4.56,4.56,0,0,0,.87-.357,3.339,3.339,0,0,0,.8-.59,3.043,3.043,0,0,0,.58-.8,2.222,2.222,0,0,0,.223-1.009,1.234,1.234,0,0,0-.252-.834,1.507,1.507,0,0,0-.677-.43,3.8,3.8,0,0,0-1.006-.17l-1.218-.06a9.924,9.924,0,0,1-1.237-.113,2.916,2.916,0,0,1-1.112-.4,2.3,2.3,0,0,1-.8-.871,3.212,3.212,0,0,1-.309-1.538,4.334,4.334,0,0,1,.435-1.937,5.84,5.84,0,0,1,1.141-1.583,7.358,7.358,0,0,1,1.6-1.2,8.629,8.629,0,0,1,1.827-.767,6.3,6.3,0,0,1,2.117-.236,3.777,3.777,0,0,1,1.866.576Z" transform="translate(340.157 -1942.686)" fill="#fff"/>
          </g>
        </g>
        <path id="Path_6256" data-name="Path 6256" d="M-358.281,2104.686" transform="translate(401.411 -2027.178)" fill="none" stroke="#be272d" stroke-miterlimit="10" stroke-width="0.25"/>
        <g id="Group_480" data-name="Group 480" transform="translate(0 30.099)">
          <path id="Path_6257" data-name="Path 6257" d="M-452.268,2062.388v3.839l7.15-2.049v3.708l-7.15,2.048v7.231l-4.41,1.263v-18.615l12.16-3.484v3.839Z" transform="translate(456.678 -2030.115)" fill="#fff"/>
          <path id="Path_6258" data-name="Path 6258" d="M-405.148,2058.355a9.769,9.769,0,0,1-1.605,2.827,11.125,11.125,0,0,1-2.518,2.259,11.771,11.771,0,0,1-3.275,1.49,9.025,9.025,0,0,1-3.287.39,5.149,5.149,0,0,1-2.479-.828,4.473,4.473,0,0,1-1.566-1.918,7.067,7.067,0,0,1-.548-2.906v-11.6l4.436-1.271v11.227a4.651,4.651,0,0,0,.2,1.39,2.614,2.614,0,0,0,.6,1.051,1.923,1.923,0,0,0,1.07.548,3.54,3.54,0,0,0,1.6-.145,4.815,4.815,0,0,0,1.6-.775,4.459,4.459,0,0,0,1.083-1.165,4.714,4.714,0,0,0,.6-1.394,6.235,6.235,0,0,0,.182-1.5v-11.227l4.462-1.278v11.6A9.354,9.354,0,0,1-405.148,2058.355Z" transform="translate(436.316 -2022.93)" fill="#fff"/>
          <path id="Path_6259" data-name="Path 6259" d="M-368.063,2037.254v14.777l-4.463,1.279v-14.777l-5.218,1.5v-3.839l14.9-4.269v3.839Z" transform="translate(412.343 -2016.406)" fill="#fff"/>
          <path id="Path_6260" data-name="Path 6260" d="M-321.867,2034.491a9.752,9.752,0,0,1-1.605,2.826,11.1,11.1,0,0,1-2.518,2.26,11.789,11.789,0,0,1-3.275,1.49,9.029,9.029,0,0,1-3.287.39,5.148,5.148,0,0,1-2.479-.827,4.474,4.474,0,0,1-1.566-1.918,7.066,7.066,0,0,1-.548-2.906v-11.595l4.435-1.271v11.227a4.66,4.66,0,0,0,.2,1.39,2.607,2.607,0,0,0,.6,1.051,1.923,1.923,0,0,0,1.069.548,3.547,3.547,0,0,0,1.6-.144,4.813,4.813,0,0,0,1.6-.776,4.473,4.473,0,0,0,1.083-1.165,4.718,4.718,0,0,0,.6-1.395,6.208,6.208,0,0,0,.182-1.5v-11.227l4.462-1.279v11.595A9.362,9.362,0,0,1-321.867,2034.491Z" transform="translate(389.54 -2009.527)" fill="#fff"/>
          <path id="Path_6261" data-name="Path 6261" d="M-280.525,2029.21l-4.011-6.239-1.521.436v7.388l-4.357,1.249v-18.615l7.045-2.018a12.52,12.52,0,0,1,2.6-.468,5.46,5.46,0,0,1,2.271.283,3.218,3.218,0,0,1,1.6,1.275,4.516,4.516,0,0,1,.6,2.51,6.284,6.284,0,0,1-1.018,3.473,8.331,8.331,0,0,1-2.818,2.648l4.827,6.583Zm-.183-12.858a1.506,1.506,0,0,0-.276-.986,1.271,1.271,0,0,0-.707-.428,2.682,2.682,0,0,0-.97-.024,7.47,7.47,0,0,0-1.036.218l-2.385.684v4.338l2.124-.609a8.542,8.542,0,0,0,1.127-.415,4.921,4.921,0,0,0,1.048-.629,3.048,3.048,0,0,0,.774-.905A2.488,2.488,0,0,0-280.708,2016.353Z" transform="translate(363.292 -2004.614)" fill="#fff"/>
          <g id="Group_479" data-name="Group 479" transform="translate(91.221)">
            <path id="Path_6262" data-name="Path 6262" d="M-236.146,1996.526v3.786l-12.42,3.559v-3.786Z" transform="translate(248.566 -1996.526)" fill="#fff"/>
            <path id="Path_6263" data-name="Path 6263" d="M-248.566,2037.461l12.89-3.694v-3.839l-12.89,3.694Z" transform="translate(248.566 -2015.287)" fill="#fff"/>
            <path id="Path_6264" data-name="Path 6264" d="M-248.566,2016.922l11.977-3.432v3.6l-11.977,3.432Z" transform="translate(248.566 -2006.054)" fill="#fff"/>
          </g>
        </g>
        <g id="Group_483" data-name="Group 483" transform="translate(0 38)">
          <path id="Path_6265" data-name="Path 6265" d="M-439.926,2126.67l.1-13.2-.078.023-4.8,14.548-3.131.9L-452.5,2117.1l-.078.022.1,13.142-4.2,1.2v-18.615l6.348-1.819,4.206,10.732.1-.03,4.023-13.09,6.453-1.849v18.615Z" transform="translate(456.678 -2066.364)" fill="#fff"/>
          <path id="Path_6266" data-name="Path 6266" d="M-379.294,2102.7a12.16,12.16,0,0,1-.757,4.253,13.429,13.429,0,0,1-2.1,3.73,14.052,14.052,0,0,1-3.2,2.928,14.214,14.214,0,0,1-4.019,1.861,10.7,10.7,0,0,1-4.005.438,6.726,6.726,0,0,1-3.183-1.1,6.126,6.126,0,0,1-2.1-2.527,8.9,8.9,0,0,1-.757-3.819,12,12,0,0,1,.757-4.253,12.93,12.93,0,0,1,2.1-3.665,14.032,14.032,0,0,1,3.183-2.858,14.514,14.514,0,0,1,4.005-1.832,11.265,11.265,0,0,1,4.019-.468,6.779,6.779,0,0,1,3.2,1.03,5.9,5.9,0,0,1,2.1,2.461A8.808,8.808,0,0,1-379.294,2102.7Zm-4.775,1.369a5.553,5.553,0,0,0-.391-2.149,3.668,3.668,0,0,0-1.083-1.491,3.492,3.492,0,0,0-1.67-.7,5,5,0,0,0-2.153.183,6.7,6.7,0,0,0-2.14,1.047,7.859,7.859,0,0,0-1.67,1.661,7.348,7.348,0,0,0-1.083,2.112,7.6,7.6,0,0,0-.378,2.369,5.8,5.8,0,0,0,.391,2.215,3.753,3.753,0,0,0,1.083,1.517,3.437,3.437,0,0,0,1.656.721,4.891,4.891,0,0,0,2.14-.179,6.682,6.682,0,0,0,2.14-1.047,7.722,7.722,0,0,0,1.67-1.675,7.74,7.74,0,0,0,1.1-2.141A7.681,7.681,0,0,0-384.069,2104.072Z" transform="translate(424.513 -2059.941)" fill="#fff"/>
          <path id="Path_6267" data-name="Path 6267" d="M-338.9,2098.662l-4.462,1.279-6.993-16.612,5.01-1.435,4.279,11.973.1-.03,4.253-14.417,4.932-1.413Z" transform="translate(396.962 -2050.192)" fill="#fff"/>
          <path id="Path_6268" data-name="Path 6268" d="M-246.873,2071.352l.1-13.2-.078.022-4.8,14.549-3.131.9-4.671-11.834-.078.023.1,13.142-4.2,1.2v-18.615l6.348-1.819,4.207,10.731.1-.03,4.023-13.09,6.453-1.849V2070.1Z" transform="translate(348.246 -2035.294)" fill="#fff"/>
          <path id="Path_6269" data-name="Path 6269" d="M-154.137,2046.37l-7.437-10.042-.078.022.1,12.143-4.332,1.241v-18.615l5.088-1.458,7.411,10.024.078-.022-.1-12.117,4.332-1.241v18.615Z" transform="translate(293.344 -2021.152)" fill="#fff"/>
          <path id="Path_6270" data-name="Path 6270" d="M-110.838,2020.031v14.63l-4.462,1.279v-14.63l-5.219,1.5v-3.985l14.9-4.269v3.985Z" transform="translate(267.867 -2014.551)" fill="#fff"/>
          <g id="Group_481" data-name="Group 481" transform="translate(67.738 23.522)">
            <path id="Path_6271" data-name="Path 6271" d="M-289.721,2068.215V2072l-12.42,3.559v-3.786Z" transform="translate(302.141 -2068.215)" fill="#fff"/>
            <path id="Path_6272" data-name="Path 6272" d="M-302.141,2109.151l12.89-3.694v-3.839l-12.89,3.694Z" transform="translate(302.141 -2086.977)" fill="#fff"/>
            <path id="Path_6273" data-name="Path 6273" d="M-302.141,2088.612l11.977-3.432v3.6l-11.977,3.432Z" transform="translate(302.141 -2077.744)" fill="#fff"/>
          </g>
          <g id="Group_482" data-name="Group 482" transform="translate(110.583 11.245)">
            <path id="Path_6274" data-name="Path 6274" d="M-191.975,2040.206v3.786l-12.42,3.559v-3.786Z" transform="translate(204.395 -2040.206)" fill="#fff"/>
            <path id="Path_6275" data-name="Path 6275" d="M-204.4,2081.142l12.89-3.693v-3.839l-12.89,3.694Z" transform="translate(204.395 -2058.968)" fill="#fff"/>
            <path id="Path_6276" data-name="Path 6276" d="M-204.4,2060.6l11.977-3.432v3.6l-11.977,3.432Z" transform="translate(204.395 -2049.735)" fill="#fff"/>
          </g>
        </g>
      </g>
    </g>
  </g>
  <g id="Group_490" data-name="Group 490" transform="translate(2.938 42.203)">
    <path id="Path_6277" data-name="Path 6277" d="M-129.707,2097.692l.047-24.483-20.931-29.36-53.985,15.344-.517-35.052-244.883,69.616v48.156l28.467-7.852.142,38.784Z" transform="translate(449.976 -2024.141)"/>
    <g id="Group_487" data-name="Group 487" transform="translate(10.015 13.197)">
      <path id="Path_6278" data-name="Path 6278" d="M-427.128,2185.565l11.82-3.2a24.128,24.128,0,0,1,4.674-.816,8.717,8.717,0,0,1,3.842.51,5.287,5.287,0,0,1,2.607,2.26,8.594,8.594,0,0,1,.966,4.435,12.561,12.561,0,0,1-.9,4.917,11.218,11.218,0,0,1-2.472,3.681,14.086,14.086,0,0,1-3.731,2.606,26.1,26.1,0,0,1-4.673,1.738l-5.124,1.388v12.4l-7.012,1.9Zm7.012,11.584,4.674-1.267a10.74,10.74,0,0,0,1.821-.672,6.717,6.717,0,0,0,1.573-1.034,4.794,4.794,0,0,0,1.124-1.471,4.4,4.4,0,0,0,.427-1.982,2.532,2.532,0,0,0-.562-1.8,2.594,2.594,0,0,0-1.439-.756,5.553,5.553,0,0,0-1.955.012q-1.079.181-2.068.448l-3.6.974Z" transform="translate(427.128 -2125.733)" fill="#fff100"/>
      <path id="Path_6279" data-name="Path 6279" d="M-362.531,2167.958l12.314-3.336a22.251,22.251,0,0,1,4.607-.775,8.9,8.9,0,0,1,3.82.538,5.291,5.291,0,0,1,2.607,2.26,8.5,8.5,0,0,1,.966,4.39,11.571,11.571,0,0,1-1.753,6.2,11.408,11.408,0,0,1-5.124,4.377l8.09,11.246-8.4,2.277-6.652-10.918-3.461.938v12.719l-7.011,1.9Zm7.011,11.269,4.135-1.12q.943-.257,2-.609a8.056,8.056,0,0,0,1.91-.921,4.916,4.916,0,0,0,1.416-1.44,3.935,3.935,0,0,0,.561-2.175,2.745,2.745,0,0,0-.494-1.8,2.271,2.271,0,0,0-1.258-.761,4.951,4.951,0,0,0-1.753-.042,15.237,15.237,0,0,0-1.933.388l-4.584,1.243Z" transform="translate(390.846 -2115.796)" fill="#fff100"/>
      <path id="Path_6280" data-name="Path 6280" d="M-299.985,2164.234a20.718,20.718,0,0,1,1.281-7.269,21.747,21.747,0,0,1,3.573-6.249,23.114,23.114,0,0,1,5.438-4.822,24.515,24.515,0,0,1,6.876-3.031,19.055,19.055,0,0,1,6.876-.7,11.569,11.569,0,0,1,5.438,1.876,10.357,10.357,0,0,1,3.573,4.313,15.478,15.478,0,0,1,1.281,6.574,20.694,20.694,0,0,1-1.281,7.268,21.735,21.735,0,0,1-3.573,6.249,23.118,23.118,0,0,1-5.438,4.821,24.514,24.514,0,0,1-6.876,3.032,19.033,19.033,0,0,1-6.876.694,11.551,11.551,0,0,1-5.438-1.875,10.353,10.353,0,0,1-3.573-4.314A15.484,15.484,0,0,1-299.985,2164.234Zm7.281-1.972a10.148,10.148,0,0,0,.7,3.923,6.488,6.488,0,0,0,2,2.7,6.531,6.531,0,0,0,3.124,1.288,9.947,9.947,0,0,0,4.067-.337,13.127,13.127,0,0,0,4.068-1.867,13.447,13.447,0,0,0,3.123-2.981,13.318,13.318,0,0,0,2-3.778,13.3,13.3,0,0,0,.7-4.3,10.225,10.225,0,0,0-.7-3.9,6.5,6.5,0,0,0-2-2.717,6.54,6.54,0,0,0-3.123-1.288,9.957,9.957,0,0,0-4.068.337,13.141,13.141,0,0,0-4.067,1.866,13.515,13.515,0,0,0-3.124,2.981,13.233,13.233,0,0,0-2,3.8A13.351,13.351,0,0,0-292.7,2162.261Z" transform="translate(355.715 -2103.588)" fill="#fff100"/>
      <path id="Path_6281" data-name="Path 6281" d="M-210.783,2119.661l10.607-2.874,7.325,18.78.09-.025,7.371-22.76,10.562-2.861v31.82l-7.012,1.9v-24.4l-.089.024-8.36,26.669-5.348,1.449-8.045-22.225-.09.024v24.405l-7.011,1.9Z" transform="translate(305.613 -2085.518)" fill="#fff100"/>
      <path id="Path_6282" data-name="Path 6282" d="M-114.2,2103.542l7.012-1.9v31.82l-7.012,1.9Z" transform="translate(251.363 -2080.868)" fill="#fff100"/>
      <path id="Path_6283" data-name="Path 6283" d="M-70.964,2095.591a3.594,3.594,0,0,0-2.314-.969,8.02,8.02,0,0,0-2.765.232,8.782,8.782,0,0,0-1.573.606,8.372,8.372,0,0,0-1.528.976,4.969,4.969,0,0,0-1.168,1.327,3.151,3.151,0,0,0-.45,1.65,1.871,1.871,0,0,0,1.079,1.911,7.938,7.938,0,0,0,2.719.566q1.64.1,3.528.123a11.725,11.725,0,0,1,3.529.572,5.671,5.671,0,0,1,2.719,1.916,6.659,6.659,0,0,1,1.079,4.156,12.022,12.022,0,0,1-.989,4.9,13.738,13.738,0,0,1-2.674,4.005,16.3,16.3,0,0,1-3.91,2.992,21.016,21.016,0,0,1-4.7,1.9,16.631,16.631,0,0,1-5.752.615,10.577,10.577,0,0,1-4.944-1.718l4.99-6.834a5.044,5.044,0,0,0,2.719,1.488,7.191,7.191,0,0,0,3.394-.133,9.255,9.255,0,0,0,1.731-.671,7.876,7.876,0,0,0,1.573-1.032,5.065,5.065,0,0,0,1.124-1.339,3.165,3.165,0,0,0,.426-1.6,1.99,1.99,0,0,0-1.1-1.972,7.826,7.826,0,0,0-2.765-.667q-1.663-.133-3.6-.194a12.93,12.93,0,0,1-3.6-.6,5.879,5.879,0,0,1-2.763-1.859,6.085,6.085,0,0,1-1.1-3.97,11.308,11.308,0,0,1,1.011-4.769,14.342,14.342,0,0,1,2.7-3.966,16.813,16.813,0,0,1,3.888-3.008,19.5,19.5,0,0,1,4.539-1.881,17.658,17.658,0,0,1,5.213-.649,9.056,9.056,0,0,1,4.539,1.332Z" transform="translate(237.254 -2073.031)" fill="#fff100"/>
      <path id="Path_6284" data-name="Path 6284" d="M-24.172,2074.084l21.618-5.856v6.471l-14.607,3.957v5.933l13.8-3.737v6.471l-13.8,3.738v6.472l15.416-4.176v6.471l-22.427,6.076Z" transform="translate(200.799 -2062.1)" fill="#fff100"/>
      <path id="Path_6285" data-name="Path 6285" d="M52.487,2062.149a3.584,3.584,0,0,0-2.313-.969,7.975,7.975,0,0,0-2.765.232,8.734,8.734,0,0,0-1.573.606,8.281,8.281,0,0,0-1.528.975,4.968,4.968,0,0,0-1.169,1.328,3.157,3.157,0,0,0-.449,1.65,1.869,1.869,0,0,0,1.078,1.91,7.948,7.948,0,0,0,2.72.567q1.64.1,3.528.123a11.708,11.708,0,0,1,3.528.572,5.669,5.669,0,0,1,2.719,1.916,6.667,6.667,0,0,1,1.079,4.157,12.012,12.012,0,0,1-.989,4.9,13.767,13.767,0,0,1-2.673,4.006,16.321,16.321,0,0,1-3.911,2.991,20.97,20.97,0,0,1-4.7,1.9,16.654,16.654,0,0,1-5.753.615,10.585,10.585,0,0,1-4.943-1.718l4.988-6.834a5.042,5.042,0,0,0,2.72,1.488,7.193,7.193,0,0,0,3.393-.132,9.257,9.257,0,0,0,1.731-.671,7.828,7.828,0,0,0,1.574-1.032,5.074,5.074,0,0,0,1.123-1.339,3.158,3.158,0,0,0,.426-1.6,1.99,1.99,0,0,0-1.1-1.972,7.815,7.815,0,0,0-2.764-.667q-1.663-.134-3.6-.194a12.883,12.883,0,0,1-3.6-.6,5.878,5.878,0,0,1-2.764-1.858,6.082,6.082,0,0,1-1.1-3.97,11.3,11.3,0,0,1,1.012-4.768,14.351,14.351,0,0,1,2.7-3.967A16.858,16.858,0,0,1,43,2056.785a19.554,19.554,0,0,1,4.54-1.881,17.693,17.693,0,0,1,5.214-.648,9.054,9.054,0,0,1,4.539,1.331Z" transform="translate(167.915 -2054.247)" fill="#fff100"/>
    </g>
    <g id="Group_488" data-name="Group 488" transform="translate(119.768 38.133)">
      <path id="Path_6286" data-name="Path 6286" d="M-176.737,2208.666l21.348-5.783v6.471l-14.337,3.884v6.472l13.259-3.592v6.472l-13.259,3.592v12.4l-7.011,1.9Z" transform="translate(176.737 -2162.668)" fill="#fff100"/>
      <path id="Path_6287" data-name="Path 6287" d="M-89.718,2202.739a17.433,17.433,0,0,1-.853,5.444,16.187,16.187,0,0,1-2.54,4.823,17.126,17.126,0,0,1-4.2,3.88,19.749,19.749,0,0,1-5.8,2.56,15.446,15.446,0,0,1-5.842.594,8.4,8.4,0,0,1-4.2-1.6,7.923,7.923,0,0,1-2.54-3.446,13.447,13.447,0,0,1-.853-4.983v-19.55l7.011-1.9v19.281a6.734,6.734,0,0,0,.473,2.613,4.507,4.507,0,0,0,1.325,1.821,4.263,4.263,0,0,0,2.046.884,6.067,6.067,0,0,0,2.584-.183,7.96,7.96,0,0,0,2.562-1.21,8.985,8.985,0,0,0,2.022-1.987,9.214,9.214,0,0,0,1.326-2.538,8.838,8.838,0,0,0,.472-2.87v-19.281l7.011-1.9Z" transform="translate(142.931 -2151.606)" fill="#fff100"/>
      <path id="Path_6288" data-name="Path 6288" d="M-38.158,2176l-9.079,2.46v-6.2l25.169-6.819v6.2l-9.079,2.46v25.618l-7.011,1.9Z" transform="translate(104 -2141.637)" fill="#fff100"/>
      <path id="Path_6289" data-name="Path 6289" d="M45.113,2166.214a17.416,17.416,0,0,1-.854,5.445,16.155,16.155,0,0,1-2.539,4.822,17.154,17.154,0,0,1-4.2,3.881,19.747,19.747,0,0,1-5.8,2.559,15.447,15.447,0,0,1-5.842.594,8.4,8.4,0,0,1-4.2-1.6,7.924,7.924,0,0,1-2.54-3.447,13.434,13.434,0,0,1-.853-4.982v-19.552l7.011-1.9v19.28a6.731,6.731,0,0,0,.473,2.614,4.51,4.51,0,0,0,1.325,1.82,4.275,4.275,0,0,0,2.045.885,6.1,6.1,0,0,0,2.584-.183,7.958,7.958,0,0,0,2.562-1.211,8.986,8.986,0,0,0,2.022-1.987,9.2,9.2,0,0,0,1.326-2.539,8.821,8.821,0,0,0,.472-2.869v-19.281l7.011-1.9Z" transform="translate(67.2 -2131.092)" fill="#fff100"/>
      <path id="Path_6290" data-name="Path 6290" d="M94.26,2137.371l12.315-3.336a22.256,22.256,0,0,1,4.607-.776,8.9,8.9,0,0,1,3.82.538,5.3,5.3,0,0,1,2.607,2.261,8.5,8.5,0,0,1,.965,4.389,11.569,11.569,0,0,1-1.752,6.206,11.4,11.4,0,0,1-5.124,4.377l8.09,11.246-8.4,2.277-6.652-10.917-3.46.937v12.719l-7.012,1.9Zm7.012,11.269,4.134-1.12q.945-.256,2-.609a8.049,8.049,0,0,0,1.91-.922,4.905,4.905,0,0,0,1.416-1.44,3.935,3.935,0,0,0,.562-2.175,2.744,2.744,0,0,0-.494-1.8,2.277,2.277,0,0,0-1.258-.76,4.957,4.957,0,0,0-1.753-.042,15.094,15.094,0,0,0-1.933.389l-4.584,1.242Z" transform="translate(24.526 -2123.552)" fill="#fff100"/>
      <path id="Path_6291" data-name="Path 6291" d="M161.317,2116.993l21.618-5.856v6.471l-14.607,3.957v5.933l13.8-3.738v6.471l-13.8,3.738v6.472l15.416-4.176v6.472l-22.427,6.075Z" transform="translate(-13.138 -2111.137)" fill="#fff100"/>
    </g>
    <g id="Group_489" data-name="Group 489" transform="translate(36.936 98.833)">
      <path id="Path_6292" data-name="Path 6292" d="M-352.629,2286.472a3.186,3.186,0,0,1,.983.212,2.049,2.049,0,0,1,.764.53,2.4,2.4,0,0,1,.494.89,4.225,4.225,0,0,1,.174,1.291c0,.135,0,.27-.011.407s-.019.272-.033.4l2.485-.673-.821.256c.361-.113.656-.2.889-.263l.539-.146a.986.986,0,0,1,.236-.053,2.168,2.168,0,0,1-.315.13c-.21.079-.478.179-.8.3s-.688.245-1.086.379-.783.255-1.158.363l1.023-.264.866-.235.861-.234q.421-.114.8-.224c.255-.072.488-.138.7-.195.314-.085.565-.15.748-.2s.275-.062.275-.047-.068.052-.2.088l-.236.064a.11.11,0,0,0-.039.017.263.263,0,0,1-.052.02l-.01,0c.007.013.056.009.146-.012s.153-.036.191-.046l.191-.018-.113.042v-.011c-.045.012-.158.05-.337.114s-.469.161-.866.291-.921.3-1.569.5-1.464.448-2.445.736l-.045.237.641-.162a.26.26,0,0,1,.067-.013.056.056,0,0,1,.017.007.048.048,0,0,0,.018.007.237.237,0,0,0,.067-.013.234.234,0,0,0,.078-.032.357.357,0,0,1,.1-.016l-.09.025c-.007,0-.011,0-.011.008s0,.006-.01.009l.021-.006c.008,0,.012,0,.012,0s0,0,.011,0a.471.471,0,0,0-.067.023.445.445,0,0,1-.068.024l-.033.009c-.037.018-.131.051-.281.1s-.319.1-.506.17a9.393,9.393,0,0,1-1.169,2.8,11.943,11.943,0,0,1-1.967,2.406,13.08,13.08,0,0,1-2.534,1.867,12.362,12.362,0,0,1-2.871,1.188,7.11,7.11,0,0,1-1.731.262,3.145,3.145,0,0,1-1.438-.286,2.189,2.189,0,0,1-.977-.956,3.606,3.606,0,0,1-.36-1.735,7.062,7.062,0,0,1,.1-1.2,9.607,9.607,0,0,1,.281-1.179c-.465.127-.831.22-1.1.281s-.463.1-.6.122a.982.982,0,0,1-.248.022c-.033,0-.05-.011-.05-.02s.035-.034.107-.057.17-.059.3-.108a5.6,5.6,0,0,1-.821.182c-.135.011-.2-.014-.2-.074s.053-.091.158-.138.206-.089.3-.122c-.127.02-.191.01-.191-.027s.017-.048.05-.075a1.391,1.391,0,0,1,.3-.133c.168-.06.431-.143.787-.247s.856-.247,1.5-.429a10.385,10.385,0,0,1,1.315-2.222,13.458,13.458,0,0,1,1.8-1.923,13.571,13.571,0,0,1,2.113-1.523,12.487,12.487,0,0,1,2.253-1.038.515.515,0,0,1,.146-.241.823.823,0,0,1,.36-.176,3,3,0,0,1,.551-.087,6.042,6.042,0,0,1,.618-.015c.2.005.391.016.567.031s.313.03.41.041Zm-.924,5.345-6.4,1.757a6.905,6.905,0,0,0-.3,2.027,2.482,2.482,0,0,0,.1.728.912.912,0,0,0,.331.484,1.166,1.166,0,0,0,.635.193,3.312,3.312,0,0,0,1.005-.143,6.54,6.54,0,0,0,1.689-.711,6.241,6.241,0,0,0,1.338-1.076,6.148,6.148,0,0,0,.967-1.365,6.7,6.7,0,0,0,.579-1.574l-.225.061-.106.029a.513.513,0,0,1-.108.018l-.831.225a.859.859,0,0,1-.108.024,1.038,1.038,0,0,0-.106.024.014.014,0,0,1,.011-.015l-.675.183a.292.292,0,0,1-.089.014l.078-.022c.015,0,.022-.01.022-.018l-.067.018c-.008,0-.013,0-.017,0a.024.024,0,0,0-.017,0l.022-.006.09-.025a.592.592,0,0,0,.09-.035l.023-.007a1.03,1.03,0,0,1,.158-.053l.079-.021a.479.479,0,0,0,.09-.036.453.453,0,0,1,.1-.038l.135-.037a1.66,1.66,0,0,1,.406-.155c.075-.021.152-.039.231-.058s.159-.037.242-.059.136-.038.2-.061.135-.046.2-.072l.2-.055Zm-2.392-2.3c0-.008-.009-.015-.027-.021s-.028-.024-.028-.054a.208.208,0,0,1,.056-.1.372.372,0,0,1,.056-.071l.226.006a.61.61,0,0,1-.045-.168,1.277,1.277,0,0,1-.011-.176,1.109,1.109,0,0,1,.157-.593,11.191,11.191,0,0,0-2.449,1.962,8.75,8.75,0,0,0-1.63,2.449l6.178-1.673c.007-.085.012-.166.017-.241s.006-.155.006-.238a2.835,2.835,0,0,0-.057-.6.905.905,0,0,0-.2-.422.69.69,0,0,0-.412-.21,1.717,1.717,0,0,0-.672.052.133.133,0,0,1,.012.065c0,.03-.031.068-.091.115a.505.505,0,0,1-.169.091c-.089.025-.15.007-.181-.052,0-.008-.009-.014-.028-.021s-.028-.024-.028-.054v-.011a.345.345,0,0,1-.293-.1l-.1.071a.333.333,0,0,1-.107.052C-355.853,2289.594-355.913,2289.578-355.944,2289.519Zm-.578,3.35c-.007,0-.011,0-.011-.009l-.023-.038a.128.128,0,0,1,.034-.065.106.106,0,0,1,.034-.044,1.25,1.25,0,0,1,.2.013c.03.007.045.014.045.021,0,.037-.035.074-.107.113a.916.916,0,0,1-.129.064c-.015,0-.023,0-.023-.011A.079.079,0,0,0-356.522,2292.868Zm.394-3.8c-.008,0-.011,0-.011-.008l-.023-.039a.126.126,0,0,1,.033-.066.117.117,0,0,1,.034-.043,1.342,1.342,0,0,1,.2.014c.03.006.045.013.045.021,0,.037-.036.075-.107.113a.98.98,0,0,1-.129.063c-.015,0-.022,0-.022-.01A.081.081,0,0,0-356.128,2289.073Zm.45-2.2c-.007,0-.012,0-.012-.008l-.022-.04a.131.131,0,0,1,.034-.065.111.111,0,0,1,.033-.042,1.34,1.34,0,0,1,.2.012c.03.007.045.014.045.021,0,.039-.036.077-.107.115a1.023,1.023,0,0,1-.13.063c-.015,0-.022,0-.022-.011A.085.085,0,0,0-355.678,2286.871Z" transform="translate(365.71 -2270.269)" fill="#fff"/>
      <path id="Path_6293" data-name="Path 6293" d="M-321.72,2280.582l2.417-.655a1.074,1.074,0,0,1,.225-.038c.067,0,.1,0,.1.018s-.068.052-.2.088c-.226.061-.415.11-.568.148l-.449.111c-.147.036-.307.073-.479.113s-.386.093-.641.162v.012a.6.6,0,0,1-.169.062c-.113.034-.259.078-.438.13l-.607.175-.675.194-.642.186c-.2.058-.371.106-.506.143l-.629.171c-.1.027-.18.05-.248.073s-.124.039-.169.052l-.135.037a2.218,2.218,0,0,0,.355-.075q.354-.083.938-.237t1.328-.343q.742-.188,1.518-.389l1.518-.389,1.327-.337q.585-.146.938-.226a1.06,1.06,0,0,1,.355-.057c0,.022-.067.052-.2.088l-.236.064a.146.146,0,0,0-.039.018.25.25,0,0,1-.051.019l-.011,0c.007.012.056.009.146-.012s.153-.036.191-.046l.192-.018-.113.042-.089.013q-.191.051-.765.235t-1.574.494q-1,.311-2.451.749t-3.4,1.01c.052,0,.078.035.078.1a.451.451,0,0,1-.022.1v.068a.838.838,0,0,1-.079.336l.776-.21a1.124,1.124,0,0,1,.225-.039c.067,0,.1,0,.1.018s-.067.052-.2.089l-.534.145c-.146.039-.286.074-.421.1-.008.017-.015.034-.023.052a.356.356,0,0,1-.033.054l.286-.078c.124-.033.247-.065.372-.095s.23-.054.319-.07.136-.014.136.008-.068.052-.2.089l-.236.064a1.079,1.079,0,0,0-.108.046l-.213.092c-.079.032-.161.068-.248.106a1.421,1.421,0,0,1-.208.078l.45-.1c.09-.02.135-.027.135-.02s-.027.02-.079.038-.121.04-.208.067-.181.057-.287.089-.21.066-.315.1l.045.055.523-.119c.184-.042.354-.079.512-.11s.286-.056.388-.072.151-.02.151-.012a1.3,1.3,0,0,1-.348.133q-.349.112-1.215.357a.312.312,0,0,1-.13.12,2.178,2.178,0,0,0-.2.126,2.077,2.077,0,0,1-.366.144q-.389.138-1,.36t-1.35.484q-.737.264-1.417.5t-1.209.418c-.352.117-.593.194-.72.228l-.259.172q-.3.633-.647,1.334t-.653,1.324q-.308.624-.545,1.1l-.326.657v-.012l-1.113,2.18a3.329,3.329,0,0,1-.2.407q-.141.257-.208.41a.119.119,0,0,1-.056.105.491.491,0,0,0-.113.11v-.012l-.3.577.4-1.032.158-.2v.023c.075-.163.167-.351.276-.563s.223-.439.343-.678.243-.483.371-.735l.382-.756-.045-.134q-.372.741-.764,1.522t-.725,1.417q-.333.636-.562,1.053a2.12,2.12,0,0,1-.265.425l1.878-3.973q-.2.4-.359.711l-.344.667q-.185.359-.354.669c-.113.206-.212.381-.3.524s-.144.219-.174.227c-.007,0-.01,0-.01-.008a3.007,3.007,0,0,1,.124-.444c.068-.2.138-.409.214-.62s.142-.4.2-.566a1.782,1.782,0,0,0,.09-.283.03.03,0,0,0-.022-.006c-.03.008-.071.053-.123.136s-.113.184-.181.307l.1-.128v.1l-.157.2v-.078q-.135.249-.258.491a1.129,1.129,0,0,1-.17.277c0-.008,0-.013-.01-.014s-.012-.007-.012-.014l-.472.882.4-1.031.034-.044v-.1a.4.4,0,0,1,.011-.093c-.075.1-.163.2-.265.3a.643.643,0,0,1-.219.177c-.022.007-.034,0-.034-.035a1.488,1.488,0,0,1,.174-.436q.174-.345.635-1.1a.372.372,0,0,0-.146.09,1.39,1.39,0,0,0-.157.172q-.078.1-.153.2c-.048.067-.092.123-.129.17l-.428.882c-.052.118-.1.183-.135.193-.008,0-.011,0-.011-.018a.855.855,0,0,1,.079-.2l.112-.244.163-.348.163-.348.179-.386a.924.924,0,0,0,.028-.165c0-.054.005-.106.005-.159l-.045.046.057-.072q.056-.241.191-.659a.709.709,0,0,1-.123.191v-.012a1.8,1.8,0,0,0,.083-.191q.085-.2.248-.585t.4-.934q.235-.552.551-1.246l.348-.869c.135-.338.263-.679.382-1.027q-.224-.062-.224-.254a.48.48,0,0,1,.084-.248,2.045,2.045,0,0,1,.191-.259,1.937,1.937,0,0,1,.2-.208c.064-.055.107-.092.128-.114l.012-.014q-1.024.277-1.743.449t-1.17.267c-.3.062-.519.1-.658.122s-.208.021-.208.006.036-.034.106-.058.171-.059.3-.108a5.67,5.67,0,0,1-.821.183c-.135.011-.2-.014-.2-.074,0-.045.054-.091.163-.14s.208-.088.3-.12c-.127.02-.191.011-.191-.026a.086.086,0,0,1,.028-.053.61.61,0,0,1,.17-.091c.094-.041.236-.092.427-.155s.458-.145.8-.245.774-.224,1.3-.374,1.162-.326,1.911-.529l.495-1.1q.158-.358.327-.781t.337-.833c.112-.275.221-.53.326-.769a4.654,4.654,0,0,1,.293-.574c.007,0,.076-.056.208-.163s.287-.237.466-.39a1.22,1.22,0,0,1,.191-.261.407.407,0,0,1,.169-.095.2.2,0,0,1,.05-.009.3.3,0,0,0,.05-.008c.2-.16.386-.3.551-.42a1.677,1.677,0,0,1,.3-.194l.023-.006q1.034-.281,2.165-.6t2.26-.629q1.13-.311,2.215-.617t2.041-.564c.052-.014.113-.033.18-.054a1.164,1.164,0,0,1,.2-.048.8.8,0,0,1,.163-.01.064.064,0,0,1,.068.072.077.077,0,0,1-.039.062.661.661,0,0,1-.09.052.529.529,0,0,1-.09.036l-.051.013a.085.085,0,0,1-.05,0,1.191,1.191,0,0,1-.118-.052.3.3,0,0,0,.017.075c.011.034.022.072.034.114s.023.085.034.132a.463.463,0,0,1,.018.1c0,.015,0,.023-.012.025l-.14.185q-.13.17-.287.369t-.3.368a.767.767,0,0,1-.174.177c-.419.256-.8.47-1.125.641s-.648.325-.956.457-.626.255-.956.371-.711.247-1.141.393-.927.319-1.49.516-1.234.443-2.013.737a2.257,2.257,0,0,0-.236.424c-.09.2-.182.414-.275.654s-.182.48-.265.723-.146.455-.191.632c.172-.046.349-.1.529-.148s.375-.107.585-.164Zm-14.845,9.9c.031-.073.057-.141.078-.208l.1-.128a.162.162,0,0,1-.056,0,.2.2,0,0,0-.067.007.082.082,0,0,0-.057.071l-.089.475.011-.014Q-336.61,2290.587-336.565,2290.48Zm.394-.731.078-.167-.146.242Zm.236.711a2.6,2.6,0,0,1-.068.345c-.029.113-.056.225-.078.336l.146-.164c.022-.117.05-.237.084-.354a2.3,2.3,0,0,0,.074-.363Zm-.09-.9a.043.043,0,0,0,.022-.018l.045-.136Zm.506.537a.35.35,0,0,1,.046-.068,1.1,1.1,0,0,0,.123-.2l.045-.08-.022-.061-.011.014-.107.2A.876.876,0,0,0-335.52,2290.1Z" transform="translate(350.881 -2264.383)" fill="#fff"/>
      <path id="Path_6294" data-name="Path 6294" d="M-285.3,2270.3q.349-.646.709-1.2a11.925,11.925,0,0,1,.709-.985,7.345,7.345,0,0,1,.669-.732,3.709,3.709,0,0,1,.59-.464l.012,0c.015,0,.023,0,.023.028a.487.487,0,0,1-.039.145.461.461,0,0,0-.04.146.026.026,0,0,0,.034.012c.029-.007.074-.052.135-.136s.122-.173.186-.271.121-.184.174-.265.087-.125.1-.129v.011a.036.036,0,0,0,.006.022.041.041,0,0,1,0,.021.743.743,0,0,1-.039.185c-.026.085-.056.176-.09.271s-.065.185-.1.268-.049.141-.057.173a3.385,3.385,0,0,0,.2-.309c.09-.147.18-.3.27-.45s.17-.286.241-.4.119-.179.141-.185c.007,0,.011,0,.011.008a2.585,2.585,0,0,1-.158.453q-.157.4-.573,1.3.1-.152.231-.35t.259-.385q.13-.187.225-.313c.064-.085.107-.13.128-.136s.023.007.023.033.007.037.023.033a1.437,1.437,0,0,0-.107.31,1.31,1.31,0,0,0-.039.292,1.377,1.377,0,0,1-.108.333q-.106.266-.247.6t-.292.669c-.1.226-.185.42-.254.581q.878-.237,1.727-.417t1.6-.275a10.517,10.517,0,0,1,1.344-.095,2.979,2.979,0,0,1,.956.129c.045.018.068.042.068.072s-.047.067-.141.111-.2.091-.309.14-.215.092-.309.129a.462.462,0,0,0-.14.066c0,.015.023.026.067.033s.1.011.152.015.113.005.17,0,.1,0,.118,0a.3.3,0,0,0-.057.021.644.644,0,0,1-.09.03c-.083.023-.171.044-.264.067l-.163.038a.766.766,0,0,0-.14.049.372.372,0,0,0-.085.056.329.329,0,0,0-.056.049l1.822-.269.225-.021c.067-.007.1,0,.1.012s-.067.041-.2.077c-.224.061-.415.111-.569.148l-.449.11c-.147.036-.306.073-.478.114s-.386.092-.641.161v.012c0,.014-.029.03-.085.045l-.185.05-.315.085c.1,0,.189-.006.276-.007s.166,0,.241,0q.7-.178,1.428-.37t1.333-.344q.6-.152.984-.239c.255-.059.382-.075.382-.053s-.067.052-.2.089l-.236.064a.139.139,0,0,0-.039.017.245.245,0,0,1-.05.019l-.012,0c.008.013.057.009.147-.011s.153-.037.191-.046l.191-.018-.113.042-.09.013c-.044.012-.067.021-.067.029.089-.009.163-.017.219-.026a1.383,1.383,0,0,1,.152-.013c.045,0,.068.006.068.021s-.036.04-.107.074a3.557,3.557,0,0,1-.393.146c-.191.063-.451.146-.776.25s-.74.227-1.243.369a1.1,1.1,0,0,1-.27.119,2.146,2.146,0,0,1-.282.053,3.654,3.654,0,0,0-.449.1l-.191.052c-.068.018-.142.043-.225.072q.36-.086.579-.117c.146-.021.26-.032.342-.037a.427.427,0,0,1,.164.013c.027.011.039.021.039.028a.715.715,0,0,1-.191.064l-.517.14-.895.242q-.522.141-1.124.3t-1.243.332l-1.26.341-1.214.329a.816.816,0,0,1-.124.057.323.323,0,0,1-.107.011.364.364,0,0,0-.118.015.549.549,0,0,0-.1.039q-.36.728-.725,1.6t-.714,1.824q-.348.949-.675,1.932t-.6,1.9q-.27.921-.484,1.75t-.337,1.481a.3.3,0,0,1-.124.179.825.825,0,0,1-.259.115,1.87,1.87,0,0,1-.607.046,2.211,2.211,0,0,1-.669-.151,1.464,1.464,0,0,1-.54-.359.827.827,0,0,1-.22-.593v-.055c.023-.42.06-.825.113-1.218s.126-.794.22-1.207.21-.848.349-1.309.309-.972.512-1.538c.022-.073.071-.227.146-.461s.171-.515.287-.843.256-.685.422-1.071.348-.77.551-1.155l-.225.037q-.911.237-1.72.45t-1.423.364q-.613.149-.967.206c-.236.037-.354.026-.354-.033,0-.015.036-.034.107-.058s.171-.059.3-.108a5.693,5.693,0,0,1-.821.183c-.135.011-.2-.014-.2-.075q0-.068.179-.149a2,2,0,0,1,.316-.12.524.524,0,0,1-.259-.014c-.06-.025-.089-.045-.089-.06s.026-.024.078-.05a2.991,2.991,0,0,1,.309-.111c.154-.05.369-.115.646-.2s.637-.184,1.08-.3a1.666,1.666,0,0,1,.315-.867,4.215,4.215,0,0,1,.833-.782,6.267,6.267,0,0,1,1.04-.451Q-286.909,2270.789-285.3,2270.3Zm1.092-1.207c-.038-.026-.06-.04-.068-.038-.03.008-.046.023-.05.042s-.006.026-.006.019c0,.015.019.018.056.007A.26.26,0,0,0-284.21,2269.089Zm.179.693v-.011a.045.045,0,0,0,.012-.025v-.034c0-.015-.019-.036-.057-.063a.113.113,0,0,0-.09-.032c-.03.023-.044.038-.044.046s-.008.017,0,.022c.014.094.062.128.146.106Zm.618-1.775c-.015-.041-.052-.053-.113-.037s-.078.033-.078.055a.067.067,0,0,0,.006.032.625.625,0,0,0,.129.066l.023-.028.033-.043Zm-.123.719a.061.061,0,0,0,.021.051.023.023,0,0,1,.012.019.123.123,0,0,0,.067-.041l.023-.028c-.015,0-.036,0-.062-.029s-.046-.031-.061-.028Zm.8-1.408c-.015.012-.039.027-.073.048a.363.363,0,0,0-.106.159.093.093,0,0,1-.012.036.317.317,0,0,1-.033.066c.015.026.029.038.045.033s.018,0,.033-.009a.593.593,0,0,0,.09-.154A.5.5,0,0,0-282.738,2267.319Zm.416.686a.356.356,0,0,0-.118.082.149.149,0,0,0-.051.087,1.054,1.054,0,0,1-.062.135c-.041.083-.089.174-.141.274s-.1.192-.141.276a.6.6,0,0,0-.062.146c.008-.01.041-.064.1-.163s.124-.206.191-.323.13-.224.186-.325A1.627,1.627,0,0,0-282.321,2268Zm-.36,1.39a.188.188,0,0,1-.023.04.046.046,0,0,0-.011.025c.015,0,.023,0,.023.005s.011.009.034,0a2.861,2.861,0,0,0,.174-.289q.162-.285.348-.639c.124-.237.237-.456.338-.661a1.722,1.722,0,0,0,.152-.35l-.259.47c-.074.136-.156.283-.241.442s-.165.3-.236.435-.16.29-.264.476A.1.1,0,0,0-282.681,2269.4Zm.056-1.545a.025.025,0,0,0,.012.02.065.065,0,0,0,.056.007c.038-.062.071-.121.1-.173s.044-.086.067-.126a.219.219,0,0,0,.033-.082,1.835,1.835,0,0,0-.213.294Zm1.091-2.545-.281.5c-.015.019-.056.081-.124.185s-.142.217-.225.337-.159.229-.231.326-.117.15-.14.156a1.452,1.452,0,0,1,.1-.179q.1-.168.219-.357c.079-.126.185-.294.321-.5v-.022l-.012-.008.068-.041Zm5.622,3.774a1.122,1.122,0,0,1-.371.179,2.1,2.1,0,0,1-.326.06c-.113.012-.243.031-.393.056a1.584,1.584,0,0,1,.242-.088l.242-.065c.149-.042.283-.073.4-.1S-275.934,2269.086-275.912,2269.08Z" transform="translate(324.438 -2258.43)" fill="#fff"/>
      <path id="Path_6295" data-name="Path 6295" d="M-254.848,2258.955l.068-.142a.736.736,0,0,1-.073.015.6.6,0,0,0-.074.013l-.573.156-.106.029a.546.546,0,0,1-.108.017l-.832.225a.769.769,0,0,1-.107.024.927.927,0,0,0-.107.024.013.013,0,0,1,.011-.014l-.675.182a.3.3,0,0,1-.089.014l.078-.021c.015,0,.022-.01.022-.017l-.067.018a.023.023,0,0,1-.017,0,.017.017,0,0,0-.017,0l.021-.006.091-.024a.732.732,0,0,0,.09-.036l.022-.006a.911.911,0,0,1,.158-.053l.078-.021a.434.434,0,0,0,.089-.036.51.51,0,0,1,.1-.039l.135-.036a1.5,1.5,0,0,1,.18-.084c.068-.025.142-.049.225-.071s.151-.039.231-.057.159-.037.241-.06l.2-.055a1.108,1.108,0,0,0,.2-.077l.775-.21q.517-.983,1.024-1.879t.922-1.594q.472-.813.922-1.521a3.227,3.227,0,0,0,.247-.5c.06-.158.113-.3.157-.413a1.145,1.145,0,0,0,.3-.7.132.132,0,0,1,.067-.12.677.677,0,0,0,.147-.129.176.176,0,0,1,.034.1.289.289,0,0,1-.034.132.253.253,0,0,0-.034.1.91.91,0,0,0,.039.293.508.508,0,0,0,.2.227v-.1a.248.248,0,0,1,.068-.159.282.282,0,0,1,.135-.1.978.978,0,0,1,.146-.028c.045,0,.067.02.067.072l.3.526a.17.17,0,0,1-.051.1c-.034.04-.07.08-.107.119s-.073.082-.107.125a.2.2,0,0,0-.05.12c0,.045.027.066.078.063s.113,0,.18,0a.352.352,0,0,1,.18.047.2.2,0,0,1,.078.192c-.03.008-.063.041-.1.1a1.224,1.224,0,0,0-.1.2,1.919,1.919,0,0,0-.074.222.742.742,0,0,0-.028.165q-.157.538-.264.9c-.072.241-.131.446-.18.616s-.1.325-.141.46-.093.272-.146.41-.118.293-.2.465-.178.386-.3.643l.033-.009a.251.251,0,0,0,.078-.033.32.32,0,0,1,.1-.016l-.09.024c-.007,0-.011.005-.011.009s0,.007-.011.009l.022-.005c.008,0,.012,0,.012,0s0,0,.011,0a.507.507,0,0,0-.068.024.342.342,0,0,1-.067.024l-.023.007-.224.465.528-.109,4.127-1.118,2.092-.455a1.426,1.426,0,0,1,.213-.046.263.263,0,0,1,.1,0c.019.006.025.018.017.035a.037.037,0,0,1-.022.017.067.067,0,0,1-.034.021l-.562.152-.388.1q-.175.048-.36.092c-.124.031-.263.062-.416.1s-.339.077-.557.127v.024a.848.848,0,0,1-.158.059c-.082.027-.174.053-.275.08l-.315.085-.287.078q-.6.161-1.237.369l-1.844.5a.194.194,0,0,0-.052.02.161.161,0,0,1-.039.016l-.022.006.061-.017a1.048,1.048,0,0,1,.13-.025l.259-.069q.315-.085.787-.191t1.058-.264l.607-.165q.158-.042.309-.073a2.286,2.286,0,0,0,.309-.083l4.565-1.169a.239.239,0,0,1,.09-.013h.078l.022-.006.012.019c0,.022-.038.044-.113.064l-.348.095a.2.2,0,0,1-.068.03l-.011.014a.241.241,0,0,1,.051,0,.355.355,0,0,0,.1-.015l.191-.052.191-.018-.112.041-.09.014c-.038.01-.083.025-.135.042s-.116.037-.191.058l-1.743.551a1.458,1.458,0,0,1-.2.061,1.9,1.9,0,0,0-.225.066l-.472.152q-.9.244-1.89.556t-2.261.692l-.1.028c.053,0,.079.008.079.023s-.064.051-.191.085c-.181.049-.337.091-.472.123l-.383.092-.355.085c-.116.027-.253.062-.411.1l-.067.176q.281-.064.658-.162c.251-.063.51-.13.776-.2l.793-.2q.394-.1.7-.172c.2-.048.367-.084.495-.112s.191-.033.191-.018-.067.052-.2.088l-.236.064-.231.063c-.146.04-.315.083-.506.132s-.384.1-.579.151l-.449.122a.929.929,0,0,0,.139-.027.439.439,0,0,1,.107-.017.351.351,0,0,0,.079-.01,1.066,1.066,0,0,1-.226.089c-.149.051-.326.109-.528.171l-.624.191q-.321.1-.512.16a.089.089,0,0,1-.022.052q.179-.038.437-.1t.5-.107c.161-.033.3-.059.41-.078s.169-.026.169-.018a1.368,1.368,0,0,1-.36.132c-.24.071-.667.2-1.282.381l-.112.2c-.03.068-.069.164-.118.285s-.115.275-.2.458l-.3.666q-.175.391-.411.915a2.992,2.992,0,0,1-.191.362.655.655,0,0,0-.113.339.229.229,0,0,1-.017.078.266.266,0,0,1-.039.072.344.344,0,0,1-.045.08c-.022.052-.077.182-.163.393s-.193.459-.32.744l-.405.908q-.212.48-.405.886t-.331.679a1.3,1.3,0,0,1-.174.295c-.06.017-.109-.019-.146-.106a2.826,2.826,0,0,1-.355-.225,2.149,2.149,0,0,1-.331-.3,2,2,0,0,1-.242-.329.608.608,0,0,1-.1-.3v-.416a2.107,2.107,0,0,0-.045-.41,3.267,3.267,0,0,1-.044-.589,5.263,5.263,0,0,1,.034-.566,5.923,5.923,0,0,1,.135-.745c.068-.285.161-.6.281-.959s.277-.757.473-1.207a.4.4,0,0,1-.09.036l-.034.009q-.045.012-.253.085c-.139.049-.294.1-.466.154l-.5.158c-.162.051-.28.086-.355.107-.038.01-.078.023-.124.039a1.328,1.328,0,0,1-.135.042l-.54.147a.091.091,0,0,0-.033.014.084.084,0,0,1-.033.014.389.389,0,0,1-.068.013.525.525,0,0,0-.067.013l-.315.086q-.314.658-.528,1.144c-.142.323-.265.61-.366.858s-.186.46-.253.636-.131.332-.191.468c-.082.187-.17.4-.265.634s-.178.439-.252.608c-.039.078-.087.18-.147.3s-.127.247-.2.37a3.7,3.7,0,0,1-.225.325.447.447,0,0,1-.214.17.276.276,0,0,1-.248-.062,1.962,1.962,0,0,1-.247-.231c-.082-.091-.161-.184-.236-.28a2.707,2.707,0,0,0-.191-.223.285.285,0,0,1-.067-.218,2.4,2.4,0,0,1,.033-.37,2.648,2.648,0,0,0,.033-.425.815.815,0,0,1,.085-.331.789.789,0,0,0,.084-.31,2.461,2.461,0,0,1,.051-.306q.051-.249.129-.592t.185-.73c.071-.26.14-.5.209-.731l-.405.11a.31.31,0,0,1-.09.013l.079-.021c.015,0,.022-.01.022-.017l-.067.018a.025.025,0,0,1-.017,0,.02.02,0,0,0-.018,0l.023-.006.091-.024a.886.886,0,0,0,.089-.036l.023-.006a.776.776,0,0,1,.157-.054l.135-.037q.078-.245.146-.416a2.741,2.741,0,0,1,.124-.276c.038-.084.071-.154.1-.208l-.6.162c-.052.014-.1.027-.152.035s-.1.022-.152.036l-.27.073q-.473.118-.782.178c-.206.04-.37.071-.495.089a3.2,3.2,0,0,1-.331.033v-.011c0-.03.041-.049.124-.056a.641.641,0,0,0,.281-.11,3.735,3.735,0,0,1-.932.185l-.057-.018c-.015-.011-.023-.02-.023-.027l-.011-.031c0-.037.028-.071.084-.1s.123-.063.2-.1l.078-.022a.447.447,0,0,0,.113-.042.346.346,0,0,1-.1.006l-.023.005a.087.087,0,0,0-.056-.006c-.015,0-.022-.006-.022-.028a.081.081,0,0,1,.012-.042.271.271,0,0,1,.089-.064l.281-.11.916-.288q.636-.2,1.817-.52l.359-.1q.169-.372.473-1.006t.81-1.642q.506-1.009,1.237-2.455t1.754-3.455a3.478,3.478,0,0,1,.2-.408c.094-.171.163-.309.209-.41a.119.119,0,0,1,.056-.106.511.511,0,0,0,.112-.109v.011a2.325,2.325,0,0,1-.213.524q-.215.447-.529,1.083t-.686,1.366q-.371.73-.686,1.367t-.528,1.083a2.523,2.523,0,0,0-.213.513v.011a2.7,2.7,0,0,0,.168-.3q.158-.3.4-.779t.557-1.1q.31-.612.63-1.251t.635-1.251q.315-.614.567-1.1c.17-.323.308-.583.417-.781a1.189,1.189,0,0,1,.2-.307l.011,0-1.878,3.974v.011q.2-.4.354-.709c.1-.2.216-.427.344-.672s.246-.47.359-.677.213-.381.3-.525.145-.219.174-.227v.034a.3.3,0,0,0,.045-.147l.157-.2a.344.344,0,0,1-.067.2l-.112.143c-.015.035-.047.122-.1.262s-.105.3-.168.484-.126.362-.186.54-.108.321-.146.428l.146-.275.214-.25-.09.114-.113.233-.158.2a.514.514,0,0,0-.045.158c0,.015.008.021.023.017.037-.01.1-.085.174-.222s.161-.285.246-.443.165-.3.236-.441a.8.8,0,0,1,.129-.209c.015,0,.031.02.045.072a.591.591,0,0,1,.023.168.758.758,0,0,1-.023.175c.061-.076.125-.152.2-.228s.135-.14.2-.194a2.024,2.024,0,0,0,.078-.207,1.233,1.233,0,0,1,.091-.21l.156-.2.023-.006-.057.071c-.037.085-.071.173-.1.264a1.093,1.093,0,0,1-.113.244c.031-.009.045,0,.045.034a1.427,1.427,0,0,1-.174.429q-.176.341-.636,1.095a.442.442,0,0,0,.185-.135,2.911,2.911,0,0,0,.209-.247c.067-.091.125-.169.174-.238s.085-.108.107-.114.023,0,.023.027a.327.327,0,0,1-.085.152.643.643,0,0,0-.118.263l.2-.269.1-.083-.157.2-.045.035c-.045.079-.082.15-.113.21a.535.535,0,0,0-.045.237,1.982,1.982,0,0,1-.112.525c-.075.238-.177.52-.3.847s-.273.684-.439,1.069-.337.78-.517,1.181-.362.8-.545,1.193-.355.763-.512,1.106a9.387,9.387,0,0,1,1.057-.337q.606-.159,1.315-.351Zm-1.326,2.26a.2.2,0,0,1,.068-.012l.017.006a.045.045,0,0,0,.017.006.175.175,0,0,0,.068-.012.234.234,0,0,0,.078-.032l.09-.183-.54.147a3.83,3.83,0,0,1-.449.156l-.113.03c-.1.027-.224.059-.377.1s-.316.078-.489.122-.345.083-.517.122-.326.074-.461.1l-.078.167,1.215-.329.185-.05c.071-.02.152-.045.242-.078Zm-.81-6.674c-.015-.011-.04.014-.073.076s-.067.131-.1.208-.073.184-.118.324l.114-.21c.037-.071.073-.138.106-.2A.89.89,0,0,0-256.983,2254.54Zm.416-.878a3.605,3.605,0,0,1-.085.354,2.438,2.438,0,0,0-.073.364l.158-.2a2.734,2.734,0,0,1,.068-.344c.03-.112.057-.225.078-.336Zm-.034,1.73c.007-.01.026-.039.056-.089s.062-.1.1-.16.068-.117.1-.179.062-.11.085-.146l-.124.157a.657.657,0,0,1-.112.12Zm.427-.824a.089.089,0,0,1,.022-.04l.012-.025-.112.143a.072.072,0,0,0,.039-.028Zm.056-3.254v-.169l.562-1.063-.405,1.032Zm.281,2.578a1.822,1.822,0,0,1-.085.236c-.033.076-.065.157-.1.24l-.1.128a.2.2,0,0,1,.057,0,.183.183,0,0,0,.056,0,.087.087,0,0,0,.067-.074Zm-.191.389a.046.046,0,0,0-.012.025Zm.157-1.752v-.1l.157-.2v.1Zm.348,7.778.012-.015-.113.031A.373.373,0,0,0-255.522,2260.307Zm.17-8.39v-.169l.562-1.063-.405,1.032Z" transform="translate(309.019 -2249.879)" fill="#fff"/>
      <path id="Path_6296" data-name="Path 6296" d="M-236.429,2261.806c.082-.022.176-.049.281-.082s.21-.062.316-.091c.172-.047.414-.108.725-.185l1.04-.26q.573-.143,1.192-.295t1.18-.292l1.013-.251q.45-.11.686-.175l-.242.094-.591.221c-.224.083-.443.163-.652.239s-.349.123-.416.141l-.022.006c.029.022.125.015.286-.021s.358-.086.59-.149.48-.133.743-.213l.731-.219q.337-.1.567-.177l.265-.083a1.169,1.169,0,0,1,.174-.03c.071-.008.107,0,.107.033s-.029.052-.09.069c-.03.007-.067.016-.112.025s-.087.017-.124.028a.406.406,0,0,0-.146.068.156.156,0,0,0-.056.132c0,.024-.062.053-.186.09s-.259.076-.405.115-.281.078-.4.115a.717.717,0,0,0-.185.067c0,.03.032.041.1.035s.135-.016.213-.03l.219-.037c.068-.011.1-.008.1.007s-.011.029-.034.041a2.053,2.053,0,0,1-.27.057,1.738,1.738,0,0,0-.2.037.074.074,0,0,1-.09-.042c-.022-.04-.041-.056-.056-.052v.089a.024.024,0,0,0,.011.02.277.277,0,0,1-.156.086,1.118,1.118,0,0,1-.186.034,1.077,1.077,0,0,0-.163.027c-.023.007-.055.04-.1.1a.314.314,0,0,1-.186.123.069.069,0,0,1-.033,0,.076.076,0,0,0-.034,0c.105-.013.189-.025.253-.035s.124-.017.18-.021a.239.239,0,0,1,.1,0c0,.016-.033.032-.1.05l-.2.054-.118.033c-.034.009-.055.01-.063.005-.038.011-.073.021-.107.034a.074.074,0,0,0-.05.076c0,.014.043.014.129,0s.2-.04.327-.072.273-.068.427-.109l.427-.115q.2-.054.331-.079c.09-.017.135-.018.135,0-.255.084-.506.171-.754.26l-.675.234-.607.216a.964.964,0,0,1-.146.146.986.986,0,0,1-.394.191,2.166,2.166,0,0,0-.348.161c-.173.093-.377.2-.613.335s-.494.278-.771.439l-.815.474c-.266.154-.514.3-.742.426s-.419.233-.568.312c-.18.093-.356.18-.529.261a2.539,2.539,0,0,0-.45.262.4.4,0,0,1-.18.117.55.55,0,0,1-.422-.083,2.47,2.47,0,0,1-.477-.376,5.221,5.221,0,0,1-.484-.549q-.237-.308-.427-.6a4.863,4.863,0,0,1-.309-.534,1.226,1.226,0,0,1-.129-.353,1.34,1.34,0,0,1,.079-.381q.079-.246.214-.575t.309-.724q.173-.4.377-.821c-.263,0-.432-.071-.507-.2a.807.807,0,0,1-.113-.408c0-.052,0-.1.006-.142s.009-.083.017-.123a.725.725,0,0,1,.033-.122q-1.034.281-1.608.419c-.383.093-.668.158-.855.2a1.791,1.791,0,0,1-.343.054c-.041,0-.062-.013-.062-.028s.036-.034.106-.057.171-.059.3-.109a5.614,5.614,0,0,1-.821.183c-.135.011-.2-.014-.2-.074,0-.045.054-.091.163-.139s.208-.089.3-.121c-.127.02-.191.011-.191-.027a.088.088,0,0,1,.028-.053.711.711,0,0,1,.174-.093c.1-.041.246-.095.444-.159s.477-.15.833-.254l1.35-.388q.815-.231,1.985-.548l.394-.895q.112-.266.293-.625t.376-.743c.131-.256.264-.514.4-.771s.256-.489.366-.695.2-.377.275-.514l.135-.245a1.99,1.99,0,0,1,.22-.318.372.372,0,0,1,.174-.115.479.479,0,0,1,.123-.016.708.708,0,0,0,.158-.027.776.776,0,0,0,.259-.126,2.162,2.162,0,0,1,.253-.1c.153-.057.34-.124.562-.2l.708-.253q.377-.135.709-.249c.221-.075.407-.137.556-.19s.233-.08.247-.084q.283-.075.793-.226c.342-.1.716-.21,1.125-.333l1.265-.377q.652-.193,1.215-.362l.967-.291q.405-.121.518-.151l.045-.012c0,.007-.008.013-.023.017a.816.816,0,0,0,.089-.029.818.818,0,0,1,.09-.03c.052-.014.113-.032.18-.054a1.15,1.15,0,0,1,.2-.047.773.773,0,0,1,.163-.011.064.064,0,0,1,.068.072c0,.022-.008.035-.023.039a.37.37,0,0,1-.117-.007.451.451,0,0,0-.186.011l-.112.064a.267.267,0,0,0,.017.074c.011.034.022.072.033.115s.023.085.034.131a.463.463,0,0,1,.018.1c0,.022-.023.039-.068.051a1.223,1.223,0,0,1-.163.028,1.171,1.171,0,0,0-.163.028q-.585.529-1.1.921a10.472,10.472,0,0,1-1.034.7,12.371,12.371,0,0,1-1.1.578q-.575.268-1.288.546t-1.614.611q-.9.334-2.069.774a3.355,3.355,0,0,0-.236.4q-.135.262-.253.558t-.208.568a3.675,3.675,0,0,0-.124.45c.106-.028.223-.059.355-.091s.283-.071.455-.117c.038-.01.079-.023.124-.04s.09-.03.135-.042l.135-.026q.471-.128.961-.255t.883-.21q.506-.16.838-.26t.545-.159l.32-.087.153-.041c.082-.022.211-.055.387-.1s.37-.091.585-.142.431-.1.652-.149.424-.094.608-.136.334-.073.45-.093.174-.024.174-.009a.89.89,0,0,1-.2.073l-.466.137q-.265.078-.523.164a2.024,2.024,0,0,0-.359.148l3.149-.707,2.417-.656a1.051,1.051,0,0,1,.226-.037c.067,0,.1,0,.1.017s-.067.052-.2.088c-.225.061-.415.111-.569.148l-.449.111c-.147.036-.306.073-.479.113s-.386.094-.641.162v.012a.6.6,0,0,1-.169.062q-.169.052-.438.13t-.607.175l-.675.195-.642.185c-.2.058-.371.106-.506.143l-.135.036c0,.014.1,0,.309-.044s.48-.108.821-.188.727-.179,1.159-.291.873-.227,1.327-.344.9-.229,1.327-.342.817-.213,1.158-.3.614-.151.821-.2.309-.065.309-.05-.068.052-.2.089l-.236.064a.138.138,0,0,0-.039.017.212.212,0,0,1-.05.019l-.012,0c.007.013.056.009.146-.012s.154-.036.191-.046l.191-.017-.112.042-.09.013q-.169.046-.624.191t-1.237.392q-.782.245-1.9.586t-2.6.777l.022-.006a1.018,1.018,0,0,1,.225-.038c.067,0,.1,0,.1.017s-.068.052-.2.089l-.535.145q-.219.06-.421.1c-.008.017-.015.034-.023.052a.254.254,0,0,1-.033.053l.286-.077c.124-.033.248-.065.372-.095s.23-.052.32-.069.135-.015.135.008-.068.052-.2.089l-.235.064c-.008,0-.044.017-.108.045s-.135.059-.213.092-.161.068-.247.106a1.472,1.472,0,0,1-.208.08l.45-.105c.09-.02.135-.026.135-.019s-.027.02-.079.038l-.208.067-.287.089c-.1.032-.21.066-.315.1a.433.433,0,0,1,.044.067l.361-.075.326-.066c.1-.019.178-.033.241-.042s.1-.011.1,0-.075.047-.224.094-.409.126-.776.233a.233.233,0,0,1-.124.141c-.067.036-.139.08-.213.13q.011,0-.248.1c-.173.065-.4.148-.7.25l-1.019.356-1.2.416q-.625.213-1.237.419l-1.136.381-.9.3q-.377.125-.523.165a6.735,6.735,0,0,1-.315.782q-.169.35-.332.647t-.309.551a5.163,5.163,0,0,0-.248.482v.068a.149.149,0,0,1-.01.07Zm4.836-.4a.14.14,0,0,0,.023.073,1.171,1.171,0,0,0,.163-.056c.049-.02.073-.049.073-.087Zm1.158-.247c0-.014.041-.037.123-.066s.165-.056.248-.078a.765.765,0,0,1,.163-.033c.026,0,.039.008.039.023s-.013.029-.039.04-.081.027-.163.05-.166.042-.248.061S-230.435,2261.176-230.435,2261.161Zm.247-5.667a.154.154,0,0,0-.028.014.283.283,0,0,1-.05.02.353.353,0,0,0,.1-.005l.978-.22a.1.1,0,0,0-.112-.026Zm2.035-.416a.1.1,0,0,0-.1-.068.658.658,0,0,0-.191.018c-.076.017-.154.038-.236.064a1.031,1.031,0,0,1-.236.047.66.66,0,0,1,.1.085Zm.81,4.459c-.038.017-.078.034-.123.05s-.087.03-.124.039a.244.244,0,0,1-.157.008.384.384,0,0,1,.14-.111,1.1,1.1,0,0,1,.163-.061c.082-.022.124-.014.124.023A.083.083,0,0,1-227.343,2259.537Z" transform="translate(296.381 -2249.619)" fill="#fff"/>
    </g>
    <path id="Path_6297" data-name="Path 6297" d="M108.7,2024.141l20.6,29.37-20.079,5.683Z" transform="translate(136.183 -2024.141)"/>
  </g>
  <g id="Group_491" data-name="Group 491" transform="translate(2.216 41.906)">
    <path id="Path_6298" data-name="Path 6298" d="M-206.094,2023.473h0l-15.338,4.236-15.326,4.277-30.651,8.562c-20.442,5.677-40.841,11.505-61.262,17.26-20.415,5.775-40.839,11.516-61.229,17.375l-61.194,17.5h0a.718.718,0,0,0-.519.693l.217,48.118v.007a.515.515,0,0,0,.019.133.5.5,0,0,0,.621.347l14.286-4.044,13.861-3.961.327,38.773.33-39.21a.34.34,0,0,0-.011-.088.328.328,0,0,0-.4-.231h0l-14.332,3.876-13.68,3.736.212-46.91,60.726-17.163c20.423-5.744,40.813-11.605,61.213-17.433,20.394-5.849,40.808-11.623,61.18-17.548l30.571-8.842,15.284-4.425,14.9-4.358.8,34.658-.1-16.182c.65,1.09,1.335,2.156,2.031,3.214.754,1.159,1.546,2.291,2.337,3.424s1.606,2.25,2.445,3.348l1.261,1.647c.437.537.858,1.085,1.309,1.613-.346-.6-.722-1.182-1.082-1.774l-1.131-1.739c-.755-1.158-1.546-2.291-2.338-3.423s-1.606-2.249-2.446-3.347c-.776-1.025-1.563-2.044-2.387-3.035l-.026-4.137c.821,1.381,1.682,2.735,2.553,4.082.92,1.434,1.877,2.843,2.834,4.252s1.937,2.8,2.942,4.177l1.51,2.063c.52.676,1.024,1.363,1.559,2.028-.428-.739-.887-1.457-1.329-2.186l-1.379-2.152c-.921-1.434-1.877-2.843-2.835-4.252s-1.938-2.8-2.943-4.177c-.95-1.31-1.911-2.613-2.912-3.888l-.023-3.647c1.045,1.7,2.139,3.372,3.24,5.036,1.11,1.687,2.256,3.349,3.4,5.01s2.316,3.306,3.511,4.934l1.793,2.441c.615.8,1.214,1.615,1.843,2.407-.523-.866-1.077-1.71-1.614-2.566l-1.663-2.531c-1.11-1.686-2.256-3.348-3.4-5.009s-2.317-3.307-3.511-4.934c-1.177-1.615-2.363-3.224-3.6-4.8l-.026-4.2c1.266,2.018,2.582,4,3.906,5.978s2.7,3.939,4.042,5.91c1.384,1.945,2.747,3.9,4.15,5.834l2.113,2.891c.721.952,1.427,1.915,2.163,2.856-.63-1.015-1.29-2.01-1.934-3.016l-1.983-2.981c-1.328-1.983-2.7-3.939-4.043-5.909-1.385-1.944-2.747-3.9-4.151-5.834s-2.805-3.847-4.263-5.732l-.024-3.858c1.414,2.219,2.868,4.41,4.332,6.594,1.556,2.324,3.154,4.618,4.728,6.928,1.613,2.284,3.205,4.582,4.837,6.853l2.456,3.4c.836,1.121,1.656,2.254,2.506,3.365-.744-1.186-1.518-2.349-2.277-3.524l-2.327-3.49c-1.557-2.322-3.153-4.618-4.729-6.927-1.614-2.283-3.2-4.582-4.837-6.852-1.543-2.147-3.1-4.288-4.69-6.4l-.012-1.91,20.06,28.606.465-.326-20.552-29.307A.293.293,0,0,0-206.094,2023.473Z" transform="translate(451.622 -2023.462)" fill="#ec1c24"/>
    <path id="Path_6299" data-name="Path 6299" d="M254.194,2097.764l-10.245-14.721-10.274-14.7a.287.287,0,0,0-.233-.121.283.283,0,0,0-.282.283l.067,29.743.079,14.872.137,14.872.066-7.15a18.8,18.8,0,0,0,1.684,2.954,18.415,18.415,0,0,0,2.176,2.681,18.471,18.471,0,0,0-1.707-3,18.747,18.747,0,0,0-2.154-2.657l.03-3.246a43.381,43.381,0,0,0,2.747,4.333,42.2,42.2,0,0,0,3.262,4.1,42.31,42.31,0,0,0-2.8-4.426,43.246,43.246,0,0,0-3.209-4.037l.03-3.234c1.123,1.971,2.375,3.85,3.663,5.705,1.333,1.889,2.7,3.755,4.21,5.519-1.142-2.023-2.426-3.947-3.745-5.845-1.308-1.854-2.652-3.682-4.127-5.419l.011-1.144.011-2.1c.719,1.192,1.48,2.354,2.251,3.51.8,1.214,1.641,2.4,2.48,3.59s1.7,2.359,2.587,3.514l1.331,1.729c.461.564.906,1.14,1.38,1.7-.37-.629-.77-1.238-1.153-1.857l-1.2-1.822c-.8-1.214-1.641-2.4-2.48-3.59s-1.7-2.359-2.587-3.513c-.848-1.114-1.705-2.22-2.605-3.3l.017-3.253c.879,1.414,1.8,2.8,2.732,4.173.968,1.443,1.972,2.86,2.977,4.277s2.032,2.817,3.084,4.2l1.58,2.073c.544.679,1.071,1.369,1.628,2.038-.453-.744-.935-1.467-1.4-2.2l-1.451-2.165c-.969-1.442-1.972-2.86-2.978-4.276s-2.033-2.817-3.085-4.2c-1.008-1.334-2.025-2.662-3.085-3.958l.017-3.252c1.031,1.634,2.1,3.238,3.187,4.835,1.126,1.672,2.288,3.317,3.451,4.963s2.347,3.275,3.557,4.887l1.817,2.416c.622.794,1.229,1.6,1.866,2.382-.532-.858-1.093-1.695-1.639-2.543l-1.688-2.509c-1.126-1.672-2.288-3.317-3.451-4.963s-2.348-3.275-3.558-4.887c-1.16-1.555-2.329-3.1-3.541-4.62l.017-3.253c1.191,1.855,2.424,3.68,3.667,5.5,1.3,1.9,2.633,3.766,3.948,5.65,1.352,1.858,2.684,3.729,4.055,5.574l2.065,2.76c.705.908,1.395,1.827,2.114,2.725-.615-.973-1.259-1.924-1.887-2.886l-1.937-2.852c-1.3-1.9-2.633-3.766-3.948-5.65-1.353-1.857-2.683-3.73-4.055-5.573-1.319-1.775-2.648-3.544-4.021-5.282l.015-2.86v-.4c1.359,2.085,2.761,4.139,4.172,6.187,1.469,2.134,2.98,4.239,4.468,6.36,1.526,2.094,3.031,4.2,4.576,6.284l2.326,3.115c.792,1.026,1.568,2.063,2.374,3.08-.7-1.091-1.432-2.161-2.148-3.242l-2.2-3.207c-1.471-2.134-2.98-4.24-4.469-6.36-1.527-2.094-3.031-4.2-4.577-6.284-1.488-2-2.985-4-4.525-5.969l.007-3.269c1.537,2.342,3.118,4.653,4.709,6.958,1.651,2.4,3.344,4.76,5.013,7.142,1.707,2.355,3.394,4.724,5.12,7.065l2.6,3.506c.883,1.156,1.75,2.324,2.647,3.471-.792-1.221-1.614-2.421-2.42-3.632l-2.469-3.6c-1.652-2.394-3.343-4.76-5.014-7.141-1.708-2.354-3.394-4.724-5.121-7.065-1.667-2.261-3.343-4.516-5.063-6.739l.007-3.27c1.535,2.338,3.114,4.646,4.7,6.947,1.651,2.395,3.344,4.76,5.013,7.142,1.707,2.355,3.394,4.724,5.12,7.065l2.6,3.505c.883,1.157,1.75,2.325,2.647,3.471-.792-1.221-1.614-2.421-2.42-3.633l-2.469-3.6c-1.652-2.394-3.343-4.761-5.014-7.141-1.708-2.354-3.394-4.724-5.121-7.065-1.664-2.258-3.338-4.509-5.055-6.729l.007-3.269c1.533,2.335,3.109,4.639,4.694,6.936,1.651,2.395,3.344,4.76,5.013,7.142,1.707,2.355,3.394,4.724,5.12,7.065l2.6,3.506c.883,1.156,1.75,2.324,2.647,3.471-.792-1.221-1.614-2.422-2.42-3.633l-2.469-3.6c-1.652-2.395-3.343-4.76-5.014-7.142-1.708-2.354-3.394-4.724-5.121-7.064-1.662-2.255-3.333-4.5-5.048-6.719l.007-3.268c1.531,2.331,3.1,4.631,4.687,6.925,1.651,2.395,3.344,4.76,5.013,7.141,1.707,2.355,3.394,4.724,5.12,7.066l2.6,3.505c.883,1.156,1.75,2.324,2.647,3.471-.792-1.222-1.614-2.421-2.42-3.633l-2.469-3.6c-1.652-2.395-3.343-4.761-5.014-7.141-1.708-2.354-3.394-4.724-5.121-7.065-1.66-2.251-3.329-4.5-5.041-6.709l.007-3.267c1.528,2.327,3.1,4.624,4.679,6.914,1.651,2.4,3.344,4.76,5.013,7.142,1.707,2.355,3.394,4.724,5.12,7.065l2.6,3.506c.883,1.156,1.75,2.324,2.647,3.47-.792-1.221-1.614-2.421-2.42-3.632l-2.469-3.6c-1.652-2.394-3.343-4.76-5.014-7.141-1.708-2.354-3.394-4.725-5.121-7.065-1.657-2.248-3.324-4.489-5.033-6.7l.007-3.265c1.526,2.323,3.094,4.616,4.672,6.9,1.651,2.395,3.344,4.76,5.013,7.142,1.707,2.354,3.394,4.724,5.12,7.065l2.6,3.506c.883,1.156,1.75,2.324,2.647,3.47-.792-1.221-1.614-2.421-2.42-3.632l-2.469-3.6c-1.652-2.394-3.343-4.761-5.014-7.141-1.708-2.354-3.394-4.724-5.121-7.065-1.655-2.245-3.319-4.482-5.026-6.69l.007-3.263c1.524,2.319,3.089,4.609,4.664,6.892,1.651,2.4,3.344,4.76,5.013,7.142,1.707,2.355,3.394,4.724,5.12,7.065l2.6,3.506c.883,1.156,1.75,2.324,2.647,3.471-.792-1.221-1.614-2.422-2.42-3.633l-2.469-3.6c-1.652-2.394-3.343-4.76-5.014-7.141-1.708-2.354-3.394-4.724-5.121-7.065-1.652-2.242-3.314-4.476-5.018-6.68l.007-3.262c1.521,2.316,3.084,4.6,4.657,6.881,1.651,2.395,3.344,4.76,5.013,7.142,1.707,2.355,3.394,4.724,5.12,7.065l2.6,3.505c.883,1.157,1.75,2.324,2.647,3.471-.792-1.221-1.614-2.421-2.42-3.633l-2.469-3.6c-1.652-2.394-3.343-4.761-5.014-7.141-1.708-2.354-3.394-4.725-5.121-7.065-1.65-2.238-3.309-4.469-5.011-6.67l0-1.982,9.808,13.94,10.316,14.6.076,12.228.114,12.289.114-12.289.076-12.289A.19.19,0,0,0,254.194,2097.764Z" transform="translate(66.999 -2048.602)" fill="#ec1c24"/>
    <path id="Path_6300" data-name="Path 6300" d="M109.879,2076.018a58.036,58.036,0,0,0,3.223,5.181,57.312,57.312,0,0,0,3.691,4.859,57.3,57.3,0,0,0-3.223-5.181A57.977,57.977,0,0,0,109.879,2076.018Z" transform="translate(136.243 -2052.981)" fill="#ec1c24"/>
    <path id="Path_6301" data-name="Path 6301" d="M109.879,2084.877a25.7,25.7,0,0,0,2.088,3.478,25.358,25.358,0,0,0,2.553,3.152,25.411,25.411,0,0,0-2.088-3.478A25.7,25.7,0,0,0,109.879,2084.877Z" transform="translate(136.243 -2057.957)" fill="#ec1c24"/>
  </g>
</svg>
