<svg xmlns="http://www.w3.org/2000/svg" width="41" height="41" viewBox="0 0 41 41">
  <g id="Group_237" data-name="Group 237" transform="translate(-356 -365)">
    <circle id="Ellipse_1" data-name="Ellipse 1" cx="20.5" cy="20.5" r="20.5" transform="translate(356 365)" fill="#ec1d24"/>
    <g id="Group_224" data-name="Group 224" transform="translate(-193.638 -427.296)">
      <g id="Group_223" data-name="Group 223" transform="translate(560.992 803.815)">
        <path id="Path_3362" data-name="Path 3362" d="M567.7,808c0-.687-.012-1.375,0-2.062a2.075,2.075,0,1,1,4.147.018q.024,2.083,0,4.167c0,.378.107.514.5.509,1.374-.019,2.749-.017,4.123,0a1.951,1.951,0,0,1,2.025,1.482,2.032,2.032,0,0,1-2.1,2.673c-1.3.009-2.6,0-3.9,0-.635,0-.635,0-.636.617,0,1.375.023,2.75-.01,4.123a2.07,2.07,0,0,1-3.143,1.8,2,2,0,0,1-1-1.879c-.015-1.389-.017-2.778,0-4.167.005-.389-.128-.5-.507-.5-1.33.018-2.661.012-3.992.005a2.091,2.091,0,0,1-2.161-2.654,1.954,1.954,0,0,1,2.012-1.5c1.36-.018,2.72-.023,4.079,0,.446.008.591-.129.57-.573-.033-.686-.009-1.374-.009-2.061Z" transform="translate(-560.992 -803.815)" fill="#fff"/>
      </g>
    </g>
  </g>
</svg>
