<svg xmlns="http://www.w3.org/2000/svg" width="70" height="70" viewBox="0 0 70 70">
  <g id="Group_589" data-name="Group 589" transform="translate(-1728 -943)">
    <circle id="Ellipse_26" data-name="Ellipse 26" cx="35" cy="35" r="35" transform="translate(1728 943)" fill="#ec1d24"/>
    <g id="Group_588" data-name="Group 588" transform="translate(-397.931 357.417)">
      <g id="Group_587" data-name="Group 587" transform="translate(2141.028 601)">
        <path id="Path_6337" data-name="Path 6337" d="M2158.809,601c.475.087.951.173,1.426.262a14.859,14.859,0,0,1,3.839,1.319,16.183,16.183,0,0,1,5.006,3.82,13.764,13.764,0,0,1,3.242,6.279,13.1,13.1,0,0,1,.074,4.946,14.8,14.8,0,0,1-1.008,3.467,13.989,13.989,0,0,1-2.255,3.6,14.333,14.333,0,0,1-4.569,3.527,15.933,15.933,0,0,1-5.239,1.495,22.108,22.108,0,0,1-4.891-.086c-.363-.038-.729-.049-1.089-.113a.493.493,0,0,0-.341.073q-2.1,1.217-4.208,2.43-1.238.713-2.48,1.418c-.25.142-.29.119-.29-.18q0-2.312,0-4.623c0-.667,0-1.335,0-2a.37.37,0,0,0-.143-.308,13.817,13.817,0,0,1-3.575-4.735,14.514,14.514,0,0,1-1.2-4.248c-.025-.188-.059-.375-.089-.562v-2.717a16.729,16.729,0,0,1,.33-1.848,13.376,13.376,0,0,1,2.484-5.016,14.334,14.334,0,0,1,1.91-2.016,16.584,16.584,0,0,1,3.882-2.513,17.906,17.906,0,0,1,4.151-1.352c.732-.142,1.469-.242,2.211-.316Zm-10.185,26.473c0,.651,0,1.3,0,1.954,0,.068-.035.16.031.2s.15-.029.212-.07c.459-.3.915-.6,1.372-.9q1.232-.814,2.463-1.629a.511.511,0,0,1,.379-.094c1.1.164,2.209.217,3.318.289a15.4,15.4,0,0,0,3.793-.225,12.28,12.28,0,0,0,4.738-1.9,11.28,11.28,0,0,0,3.194-3.227,11.773,11.773,0,0,0,1.838-5.594,10.642,10.642,0,0,0-.819-4.978,11.817,11.817,0,0,0-2.6-3.812,13.387,13.387,0,0,0-5.809-3.458,11.846,11.846,0,0,0-3.761-.468,18.13,18.13,0,0,0-2.788.3,15.243,15.243,0,0,0-5.242,2.112,12.383,12.383,0,0,0-3.461,3.362,11,11,0,0,0-1.568,3.425,11.8,11.8,0,0,0,.89,7.954,13.321,13.321,0,0,0,3.6,4.412.546.546,0,0,1,.226.468C2148.616,626.218,2148.624,626.845,2148.624,627.473Z" transform="translate(-2141.028 -601)" fill="#fff"/>
        <path id="Path_6338" data-name="Path 6338" d="M2408.933,869.924q-2.05-1.257-4.1-2.513c-.88-.539-1.765-1.07-2.641-1.615a.736.736,0,0,0-.557-.116,17.219,17.219,0,0,1-2.106.21,15.855,15.855,0,0,1-4.183-.384,13.732,13.732,0,0,1-2.692-.94,12.278,12.278,0,0,1-1.818-1.031,17.968,17.968,0,0,1-2.375-1.937c-.125-.121-.259-.234-.387-.352-.035-.032-.079-.07-.064-.12.019-.065.086-.066.14-.063.182.011.364.034.546.04a24.967,24.967,0,0,0,2.617-.046.743.743,0,0,1,.509.148,15.185,15.185,0,0,0,3.086,1.737,11.173,11.173,0,0,0,4.368.691,17.037,17.037,0,0,0,2.624-.287.72.72,0,0,1,.577.118c1.213.814,2.433,1.616,3.65,2.423a.348.348,0,0,0,.041.025c.077.037.151.128.234.089s.048-.157.048-.239q0-1.918-.006-3.836a.3.3,0,0,1,.177-.3,12.473,12.473,0,0,0,4.938-5,10.2,10.2,0,0,0,1.184-5.494,10.51,10.51,0,0,0-1.6-4.908,11.187,11.187,0,0,0-.939-1.289.5.5,0,0,1-.115-.437,14.84,14.84,0,0,0,.117-2.946c0-.068-.047-.155.028-.2s.127.039.178.083a14.01,14.01,0,0,1,4.071,5.607,12.371,12.371,0,0,1,.8,3.225,1.346,1.346,0,0,0,.038.161v2.526c-.016.069-.037.137-.047.208a13.136,13.136,0,0,1-1.973,5.362,15.1,15.1,0,0,1-4.066,4.193.4.4,0,0,0-.193.372q.009,1.87,0,3.74c0,1.032-.011,2.064-.016,3.1Z" transform="translate(-2376.231 -829.881)" fill="#fff"/>
        <path id="Path_6339" data-name="Path 6339" d="M2589.874,864.7a1.923,1.923,0,0,1,1.917-1.877,1.91,1.91,0,1,1-1.917,1.877Z" transform="translate(-2568.478 -850.342)" fill="#fff"/>
        <path id="Path_6340" data-name="Path 6340" d="M2435,864.744a1.932,1.932,0,1,1-1.929-1.891A1.919,1.919,0,0,1,2435,864.744Z" transform="translate(-2417.31 -850.37)" fill="#fff"/>
        <path id="Path_6341" data-name="Path 6341" d="M2272.712,864.714a1.9,1.9,0,0,1,1.919-1.893,1.91,1.91,0,1,1-1.919,1.893Z" transform="translate(-2266.435 -850.34)" fill="#fff"/>
      </g>
    </g>
  </g>
</svg>
