<svg xmlns="http://www.w3.org/2000/svg" width="13.751" height="13.763" viewBox="0 0 13.751 13.763">
  <g id="clock" transform="translate(0 0)">
    <g id="Group_252" data-name="Group 252" transform="translate(0)">
      <path id="Path_3424" data-name="Path 3424" d="M415.026-1228.655a6.865,6.865,0,0,0-6.83,6.922,6.826,6.826,0,0,0,6.936,6.841,6.834,6.834,0,0,0,6.814-6.928A6.877,6.877,0,0,0,415.026-1228.655Zm.668,5.143c0,.559,0,1.117,0,1.676a.644.644,0,0,1-.3.622c-1,.581-1.992,1.163-3,1.727a.611.611,0,0,1-.827-.233.638.638,0,0,1,.16-.848,1.715,1.715,0,0,1,.242-.161c.683-.395,1.36-.8,2.055-1.175a.7.7,0,0,0,.426-.717c-.023-.8-.009-1.6-.006-2.4,0-.534.213-.792.634-.787.406.005.611.259.614.77S415.695-1224.023,415.694-1223.512Z" transform="translate(-408.195 1228.655)" fill="#180c4c"/>
    </g>
  </g>
</svg>
