<svg xmlns="http://www.w3.org/2000/svg" width="18.278" height="18.261" viewBox="0 0 18.278 18.261">
  <g id="Group_271" data-name="Group 271" transform="translate(-1979.596 112.294)">
    <g id="Group_221" data-name="Group 221" transform="translate(1979.596 -112.294)">
      <path id="Path_3360" data-name="Path 3360" d="M1981.045-94.034a1.515,1.515,0,0,1-1.3-.935,1.5,1.5,0,0,1,.347-1.775c.881-.9,1.78-1.788,2.672-2.68,1.082-1.082,2.148-2.18,3.257-3.234.422-.4.375-.639-.018-1.024-1.936-1.9-3.841-3.827-5.763-5.738a1.643,1.643,0,0,1-.547-1.809,1.576,1.576,0,0,1,2.736-.461c1.872,1.848,3.723,3.717,5.582,5.578a2.121,2.121,0,0,1,.225.23c.347.474.631.384,1.016-.009,1.821-1.86,3.671-3.693,5.512-5.534a5.362,5.362,0,0,1,.588-.548,1.538,1.538,0,0,1,2.054.154,1.514,1.514,0,0,1,.119,2.053,14.584,14.584,0,0,1-1.115,1.159c-1.631,1.633-3.247,3.282-4.91,4.883-.476.459-.42.709.02,1.139,1.92,1.875,3.8,3.788,5.707,5.681a1.642,1.642,0,0,1,.546,1.809,1.576,1.576,0,0,1-2.737.46c-1.872-1.848-3.722-3.718-5.581-5.578a2.148,2.148,0,0,1-.225-.23c-.348-.475-.632-.38-1.016.012-1.879,1.917-3.788,3.8-5.681,5.706A1.909,1.909,0,0,1,1981.045-94.034Z" transform="translate(-1979.596 112.294)" fill="#fff"/>
    </g>
  </g>
</svg>
