<svg xmlns="http://www.w3.org/2000/svg" width="23.771" height="23.801" viewBox="0 0 23.771 23.801">
  <g id="Group_119" data-name="Group 119" transform="translate(0 0)">
    <path id="Path_36" data-name="Path 36" d="M-1903.5-343.876a11.849,11.849,0,0,1,11.885,12.012,11.958,11.958,0,0,1-12.115,11.785,11.973,11.973,0,0,1-11.653-12.145A11.856,11.856,0,0,1-1903.5-343.876Zm1.217,15.776v-3.681c0-.2,0-.2.191-.2.6,0,1.2,0,1.8,0,.108,0,.152-.026.157-.144.009-.228.036-.456.057-.683.049-.554.1-1.109.151-1.662.012-.117-.02-.146-.136-.145-.691.005-1.383,0-2.074,0-.118,0-.158-.039-.156-.158.005-.467,0-.933,0-1.4a1.471,1.471,0,0,1,.047-.359.384.384,0,0,1,.335-.3,2.31,2.31,0,0,1,.426-.029c.462,0,.925,0,1.387,0,.1,0,.14-.021.14-.129q-.006-1.283,0-2.566c0-.088-.028-.125-.12-.122-.738.025-1.475-.054-2.214,0a6.28,6.28,0,0,0-1.264.192,2.365,2.365,0,0,0-1.7,1.474,3.972,3.972,0,0,0-.205,1.388q-.007.92,0,1.84c0,.129-.037.173-.169.17-.423-.008-.847,0-1.27,0-.1,0-.147.022-.146.135q.006,1.206,0,2.411c0,.089.022.132.123.136.4.014.8.031,1.2.056.341.021.277.017.277.282q0,3.6,0,7.207c0,.18,0,.18.177.181l.972,0c.6,0,1.192.015,1.787-.029.222-.016.225-.016.225-.232Z" transform="translate(1915.381 343.879)" fill="#ec1d24"/>
  </g>
</svg>
