<svg id="Group_228" data-name="Group 228" xmlns="http://www.w3.org/2000/svg" width="23.8" height="23.801" viewBox="0 0 23.8 23.801">
  <path id="Path_3363" data-name="Path 3363" d="M852.961,792.035V793.4c-.034.312-.056.625-.1.937a11.392,11.392,0,0,1-.986,3.366,11.832,11.832,0,0,1-6.165,5.97,11.251,11.251,0,0,1-3.178.85c-.257.031-.516.053-.773.079h-1.384l-.578-.056a11.014,11.014,0,0,1-2.545-.556,11.814,11.814,0,0,1-6.5-5.336,11.91,11.91,0,0,1-.949-9.807,11.927,11.927,0,0,1,10.719-8.031,11.862,11.862,0,0,1,6.308,1.476,11.832,11.832,0,0,1,5.2,5.773,11.321,11.321,0,0,1,.85,3.179C852.913,791.5,852.935,791.769,852.961,792.035Zm-4.732.977c-.008-.973.017-1.947-.019-2.92a8.293,8.293,0,0,0-.108-1.244,3.712,3.712,0,0,0-2.868-3.131,7.7,7.7,0,0,0-1.939-.192c-1.636-.013-3.272-.034-4.907.016a7.4,7.4,0,0,0-1.2.11,3.707,3.707,0,0,0-3.107,2.866,7.866,7.866,0,0,0-.192,1.972c-.013,1.654-.034,3.308.018,4.962a7.155,7.155,0,0,0,.13,1.231,3.733,3.733,0,0,0,1.62,2.464,4.471,4.471,0,0,0,2.244.676c.675.043,1.353.048,2.03.046,1.029,0,2.057.007,3.086,0a12.221,12.221,0,0,0,1.762-.1,4.08,4.08,0,0,0,1.777-.681,3.912,3.912,0,0,0,1.609-3c.069-.751.069-1.505.066-2.259C848.229,793.546,848.23,793.279,848.23,793.012Z" transform="translate(-829.162 -780.797)" fill="#ec1d24"/>
  <path id="Path_3364" data-name="Path 3364" d="M868.063,825.565c0-.739-.01-1.478,0-2.217a7.706,7.706,0,0,1,.136-1.582,2.487,2.487,0,0,1,2.135-2.006,9.9,9.9,0,0,1,1.487-.1c.83-.015,1.661-.016,2.492-.016.622,0,1.244,0,1.866.017a7.839,7.839,0,0,1,1.614.144,2.457,2.457,0,0,1,1.962,2.036,6.707,6.707,0,0,1,.108,1.079c.038.815.022,1.632.024,2.448,0,.7.006,1.391,0,2.086a11.37,11.37,0,0,1-.107,1.728,2.5,2.5,0,0,1-1.2,1.85,3.053,3.053,0,0,1-1.316.386c-1.3.11-2.6.056-3.906.067-.417,0-.835.006-1.252,0a12.162,12.162,0,0,1-1.739-.108,2.526,2.526,0,0,1-1.789-1.1,2.829,2.829,0,0,1-.426-1.212,17.638,17.638,0,0,1-.091-2.268c0-.41,0-.82,0-1.229Zm2.23,0a3.68,3.68,0,1,0,3.669-3.684A3.67,3.67,0,0,0,870.293,825.566Zm8.358-3.84a.843.843,0,1,0-1.686,0,.843.843,0,1,0,1.686,0Z" transform="translate(-862.079 -813.669)" fill="#ec1d24"/>
  <path id="Path_3365" data-name="Path 3365" d="M890.8,844.862a2.421,2.421,0,1,1,2.416,2.423A2.426,2.426,0,0,1,890.8,844.862Z" transform="translate(-881.328 -832.968)" fill="#ec1d24"/>
</svg>
