<svg xmlns="http://www.w3.org/2000/svg" width="64" height="64" viewBox="0 0 64 64">
  <g id="Group_593" data-name="Group 593" transform="translate(-0.397 -0.006)">
    <circle id="Ellipse_27" data-name="Ellipse 27" cx="32" cy="32" r="32" transform="translate(0.397 0.006)" fill="#fff"/>
    <g id="q8nT3N.tif" transform="translate(26.004 17.626)">
      <g id="Group_592" data-name="Group 592" transform="translate(0 0)">
        <path id="Path_6343" data-name="Path 6343" d="M138.353-1079.341a2.5,2.5,0,0,1-.606.863q-5.932,5.931-11.857,11.869a1.562,1.562,0,0,1-1.186.563,1.334,1.334,0,0,1-1.236-.779,1.33,1.33,0,0,1,.133-1.456,3.6,3.6,0,0,1,.374-.414q5.361-5.374,10.725-10.743c.276-.276.276-.277,0-.555q-5.391-5.4-10.783-10.8a1.642,1.642,0,0,1-.589-1.069,1.43,1.43,0,0,1,1.027-1.5h.745a2.34,2.34,0,0,1,.783.535q5.975,5.988,11.954,11.969a1.854,1.854,0,0,1,.515.823Z" transform="translate(-123.31 1093.362)" stroke="#171717" stroke-width="1"/>
      </g>
    </g>
  </g>
</svg>
