<svg xmlns="http://www.w3.org/2000/svg" width="22.622" height="15.869" viewBox="0 0 22.622 15.869">
  <g id="Group_121" data-name="Group 121" transform="translate(0 0)">
    <path id="Path_37" data-name="Path 37" d="M-230.339,445.705c-2.063.019-3.725.009-5.384-.074a31.161,31.161,0,0,1-3.388-.287,2.872,2.872,0,0,1-2.517-2.338,17.338,17.338,0,0,1-.385-3.406,34.965,34.965,0,0,1,.223-6.156c.045-.31.1-.62.174-.925a2.862,2.862,0,0,1,2.491-2.292,28.813,28.813,0,0,1,3.327-.287c2.845-.126,5.693-.111,8.539-.056a44.552,44.552,0,0,1,4.576.275,2.987,2.987,0,0,1,2.927,2.809,33.921,33.921,0,0,1,.266,7,17.862,17.862,0,0,1-.291,2.715A2.974,2.974,0,0,1-222.7,445.4c-1.015.133-2.037.182-3.058.234-.829.042-1.66.06-2.49.071S-229.909,445.705-230.339,445.705Zm-2.617-7.952q0,1.472,0,2.945c0,.364.016.374.318.2l5.13-2.952c.276-.159.278-.165-.009-.331q-2.56-1.486-5.122-2.967c-.28-.162-.317-.14-.317.191C-232.957,435.81-232.956,436.782-232.956,437.753Z" transform="translate(242.05 -429.844)" fill="#ec1d24"/>
  </g>
</svg>
