<?xml version="1.0" standalone="no"?>
<!DOCTYPE svg PUBLIC "-//W3C//DTD SVG 20010904//EN"
 "http://www.w3.org/TR/2001/REC-SVG-20010904/DTD/svg10.dtd">
<svg version="1.0" xmlns="http://www.w3.org/2000/svg"
 width="700.000000pt" height="700.000000pt" viewBox="0 0 700.000000 700.000000"
 preserveAspectRatio="xMidYMid meet">
<metadata>
Created by potrace 1.14, written by Peter Selinger 2001-2017
</metadata>
<g transform="translate(0.000000,700.000000) scale(0.100000,-0.100000)"
fill="#000000" stroke="none">
<path d="M774 6103 l-1 -888 324 -324 323 -323 0 846 0 846 53 0 c64 1 3861 1
4007 0 l105 0 -1 -846 0 -846 320 322 321 321 1 890 0 889 -2726 0 -2726 0 0
-887z"/>
<path d="M2048 5843 c-3 -5 -4 -990 -3 -2190 l0 -2183 291 -292 c160 -161 302
-303 316 -316 l25 -22 0 2505 0 2505 -313 0 c-172 0 -314 -3 -316 -7z"/>
<path d="M3149 5848 c-1 -2 -2 -1236 -3 -2743 l-1 -2740 178 -176 178 -177
177 178 177 177 -1 2734 c-1 1504 -2 2737 -3 2742 -1 6 -699 11 -702 5z"/>
<path d="M4324 3345 c0 -1378 1 -2505 2 -2505 1 0 143 141 316 313 l313 312 1
2193 1 2192 -317 0 -316 0 0 -2505z"/>
</g>
</svg>
