<svg xmlns="http://www.w3.org/2000/svg" width="16.051" height="28.317" viewBox="0 0 16.051 28.317"><g transform="translate(0.509 0.5)"><g transform="translate(0 0)"><path d="M15.042,14.021a2.493,2.493,0,0,1-.606.863Q8.5,20.816,2.579,26.754a1.564,1.564,0,0,1-1.186.563,1.334,1.334,0,0,1-1.236-.779A1.33,1.33,0,0,1,.29,25.081a3.644,3.644,0,0,1,.374-.414q5.361-5.373,10.725-10.743c.276-.277.276-.277,0-.555Q6,7.971.605,2.572A1.641,1.641,0,0,1,.016,1.5,1.431,1.431,0,0,1,1.044,0h.745a2.344,2.344,0,0,1,.783.535Q8.547,6.522,14.527,12.5a1.853,1.853,0,0,1,.515.823Z" stroke="#171717" stroke-width="1"/></g></g></svg>