<?xml version="1.0" encoding="UTF-8" standalone="no"?>
<!DOCTYPE svg PUBLIC "-//W3C//DTD SVG 1.1//EN" "http://www.w3.org/Graphics/SVG/1.1/DTD/svg11.dtd">
<svg width="100%" height="100%" viewBox="0 0 17 29" version="1.1" xmlns="http://www.w3.org/2000/svg" xmlns:xlink="http://www.w3.org/1999/xlink" xml:space="preserve" xmlns:serif="http://www.serif.com/" style="fill-rule:evenodd;clip-rule:evenodd;stroke-linejoin:round;stroke-miterlimit:2;">
    <g>
        <g>
            <path d="M11.47,14.146C7.92,17.7 4.371,21.254 0.824,24.81C0.673,24.953 0.534,25.108 0.407,25.272C-0.043,25.838 -0.116,26.62 0.219,27.259C0.52,27.909 1.185,28.327 1.909,28.316C2.508,28.31 3.076,28.043 3.463,27.585C7.401,23.64 11.346,19.69 15.294,15.743C15.603,15.455 15.848,15.105 16.013,14.716L16.052,14.622L16.051,13.753L16.03,13.682C15.909,13.284 15.685,12.926 15.382,12.643C11.4,8.66 7.418,4.672 3.437,0.683C3.169,0.406 2.847,0.187 2.492,0.039L2.399,0L1.483,0L1.415,0.02C0.532,0.275 -0.052,1.128 0.029,2.044L0.03,2.053C0.097,2.6 0.366,3.093 0.782,3.441L11.47,14.146Z" style="fill-rule:nonzero;"/>
        </g>
    </g>
</svg>
