<svg xmlns="http://www.w3.org/2000/svg" width="106.138" height="58.836" viewBox="0 0 106.138 58.836">
  <g id="petal-blue-1" transform="translate(-15.974 152.25)">
    <path id="Path_1089" data-name="Path 1089" d="M28.4-105.071s34.025-27.347,91.3,9.217c0,0-14.341-31.3-43.087-47.405a54.681,54.681,0,0,0-53.645-.457s7.164-.126,16.31,7.376c0,0-12.869-.022-19.3,16,0,0,9.387-5.776,20.292-2.069A65.58,65.58,0,0,0,28.4-105.071Z" fill="#00bab4"/>
    <path id="Path_1090" data-name="Path 1090" d="M119.7-95.854s-41.247-40.992-79.434-26.553c0,0-8.139,8.369-11.866,17.336,0,0,14.234-11.255,37.443-9.753S105.2-103.841,119.7-95.854Z" fill="#fff"/>
    <path id="Path_1091" data-name="Path 1091" d="M19.973-120.338a18.827,18.827,0,0,1,2.905-5.287c1.71-1.893,7.339-8.182,17.387,3.218A24.355,24.355,0,0,0,19.973-120.338Z" fill="#fff"/>
    <path id="Path_1092" data-name="Path 1092" d="M39.277-136.34s-8.736-7.284-16.31-7.376c0,0,7.681-4.056,11.147-4.312S39.277-136.34,39.277-136.34Z" fill="#fff"/>
    <path id="Path_1093" data-name="Path 1093" d="M87.618-124.777a74.75,74.75,0,0,0-8.166-5.1q-4.212-2.283-8.6-4.193c-2.934-1.251-5.9-2.423-8.933-3.468-3.023-1.062-6.089-2.016-9.182-3.022,1.616.143,3.225.368,4.835.6,1.588.33,3.2.58,4.768,1.035a64.393,64.393,0,0,1,9.251,3.152,58.8,58.8,0,0,1,8.6,4.661A35.626,35.626,0,0,1,87.618-124.777Z"/>
    <path id="Path_1094" data-name="Path 1094" d="M23-141.738a16.626,16.626,0,0,1,3.864.723,27.629,27.629,0,0,1,3.933,1.541,34.848,34.848,0,0,1,3.747,2.086l.04.028a25.593,25.593,0,0,0-2.439.92,23.823,23.823,0,0,0-5.958,3.935,27.928,27.928,0,0,0-4.51,5.41c-.673.957-1.148,2.021-1.726,3.025-.5,1.043-.928,2.112-1.39,3.164l-1.9,4.312,4.1-2.448a23.35,23.35,0,0,1,4.445-2,27.335,27.335,0,0,1,4.841-1.147,21.767,21.767,0,0,1,4.972-.177,19.1,19.1,0,0,1,3.416.525,59.248,59.248,0,0,0-5.328,7.266c-.943,1.5-1.837,3.037-2.651,4.611-.422.778-.8,1.579-1.173,2.382a19.4,19.4,0,0,0-1.008,2.654,7,7,0,0,0,1.5-.8c.421-.271.88-.486,1.319-.729.875-.489,1.785-.915,2.693-1.342.892-.454,1.832-.809,2.763-1.176A29.1,29.1,0,0,1,39.381-110l2.857-.9,2.9-.728A51.381,51.381,0,0,1,51-112.749a79.851,79.851,0,0,1,23.73.452l5.856,1.1c1.926.49,3.829,1.083,5.744,1.617l2.876.795c.948.3,1.87.688,2.807,1.027,1.863.709,3.735,1.393,5.615,2.066,1.89.647,3.638,1.645,5.486,2.409l5.486,2.454,10.567,5.8,2.941,1.613-1.521-2.849A153.616,153.616,0,0,0,103.479-121.4a132.542,132.542,0,0,0-10.5-11.006c-1.812-1.785-3.834-3.34-5.756-5.013l-3.063-2.291a35.331,35.331,0,0,0-3.131-2.2L77.8-144c-1.072-.7-2.254-1.234-3.379-1.861a52.755,52.755,0,0,0-7.074-3.149,54.736,54.736,0,0,0-15.2-3.16A58.084,58.084,0,0,0,36.631-150.9a51.144,51.144,0,0,0-14.716,5.514l-5.941,3.437Zm14.469-5.524a54.5,54.5,0,0,1,14.512-1.471,55.446,55.446,0,0,1,14.4,2.553,55.693,55.693,0,0,1,6.841,2.744c1.107.543,2.262.988,3.336,1.612l3.233,1.857a93.252,93.252,0,0,1,22.767,19.349,107.189,107.189,0,0,1,14.81,22.159l-7.528-4.694c-3.649-1.83-7.224-3.851-10.985-5.479q-2.856-1.143-5.736-2.236c-.963-.355-1.909-.756-2.886-1.073l-2.97-.837c-1.989-.526-3.963-1.108-5.962-1.586l-6.089-1.062a73.075,73.075,0,0,0-24.589.487,53.067,53.067,0,0,0-5.984,1.48c-.98.309-1.972.574-2.938.918l-2.852,1.164a30.3,30.3,0,0,0-2.789,1.286c-.919.453-1.84.893-2.714,1.431a29.7,29.7,0,0,0-2.608,1.609c-.419.3-.852.559-1.252.882l-.609.467a.7.7,0,0,0-.089.077c.15-.217.3-.449.436-.637.215-.307.38-.63.622-1.026l1.363-2.242c.923-1.484,1.92-2.919,2.959-4.319s2.135-2.755,3.272-4.069c1.121-1.314,2.309-2.617,3.521-3.777l1.183-1.134-1.561-.523a25.524,25.524,0,0,0-5.323-1.3,24.169,24.169,0,0,0-5.5-.123,25.728,25.728,0,0,0-5.41,1.007c-.386.116-.764.24-1.141.368a17.164,17.164,0,0,1,1.188-1.882,24.64,24.64,0,0,1,4.1-4.588,21.215,21.215,0,0,1,5.147-3.164,16.347,16.347,0,0,1,5.623-1.392l5.167-.191-3.948-3.209a47.406,47.406,0,0,0-3.815-2.84,36.936,36.936,0,0,0-4.157-2.4,33.146,33.146,0,0,0-3.507-1.408A53.76,53.76,0,0,1,37.47-147.262Z"/>
  </g>
</svg>
