<svg xmlns="http://www.w3.org/2000/svg" width="30.817" height="21.237" viewBox="0 0 30.817 21.237">
  <g id="petal-white-1" transform="translate(-105.811 -265.21)">
    <path id="Path_1087" data-name="Path 1087" d="M125.6,286.447s2.3-3.2,1.778-6.109c0,0,1.857-.245,3.254,2.864,0,0,1.285-1.954-.1-5.464,0,0,2.2-.792,5.217,1.982a16.774,16.774,0,0,0-3.857-7.706c-3.294-3.83-15.479-8.187-24.518-5.108C107.376,266.906,121.448,274.151,125.6,286.447Z" fill="#fff"/>
    <path id="Path_1088" data-name="Path 1088" d="M107.09,267.462a53.793,53.793,0,0,1,5.677,3.588,47.889,47.889,0,0,1,5.171,4.334,40.345,40.345,0,0,1,4.417,5.109,26.846,26.846,0,0,1,1.782,2.88,28.908,28.908,0,0,1,1.46,3.074,28.91,28.91,0,0,0-1.223-3.193,27.211,27.211,0,0,0-1.624-3.023,33.87,33.87,0,0,0-4.225-5.424,48.831,48.831,0,0,0-5.109-4.618,44.057,44.057,0,0,0-4.408-3.063,23.386,23.386,0,0,1,6.913-.515,32.963,32.963,0,0,1,8.3,1.741,24.952,24.952,0,0,1,3.885,1.678,11.955,11.955,0,0,1,3.3,2.416,17.419,17.419,0,0,1,3.316,5.8,8.334,8.334,0,0,0-1.159-.627,6.019,6.019,0,0,0-1.52-.428,3.908,3.908,0,0,0-1.672.1l-.472.142.2.468a8.509,8.509,0,0,1,.647,2.585,5.942,5.942,0,0,1-.047,1.314,4.723,4.723,0,0,1-.128.561,6.043,6.043,0,0,0-.976-1.284,3.781,3.781,0,0,0-1-.714,2.443,2.443,0,0,0-1.249-.257l-.243.019.049.245a6.56,6.56,0,0,1-.229,3.125,12.411,12.411,0,0,1-1.326,2.944,11.907,11.907,0,0,0,1.568-2.864,7.1,7.1,0,0,0,.45-2.988,2.181,2.181,0,0,1,.742.24,3.268,3.268,0,0,1,.817.665,6.3,6.3,0,0,1,1.124,1.851l.275.649.359-.6a4.467,4.467,0,0,0,.533-1.457,6.76,6.76,0,0,0,.11-1.493,9.058,9.058,0,0,0-.44-2.32,3.5,3.5,0,0,1,.764.042,5.036,5.036,0,0,1,1.249.4,8.411,8.411,0,0,1,2.214,1.565l1.266,1.216-.308-1.721a17.471,17.471,0,0,0-3.926-8.037,13.155,13.155,0,0,0-3.637-2.755,26.288,26.288,0,0,0-4.068-1.818,30.719,30.719,0,0,0-8.68-1.772,23.623,23.623,0,0,0-8.835,1.057l-1.363.459Z"/>
  </g>
</svg>
