<svg xmlns="http://www.w3.org/2000/svg" width="60.81" height="54.553" viewBox="0 0 60.81 54.553">
  <g id="petal-red-1" transform="translate(-204.866 -280.268)">
    <path id="Path_1095" data-name="Path 1095" d="M265.533,334s-23.72,2.507-39.572-9.111A57.274,57.274,0,0,1,205.6,297.035s7.009,2.651,9.519,1.8c0,0,.468-7.017-.585-9.38,0,0,6.017-.066,8.195,1.033,0,0,.167-5.249,2.21-7.63C224.936,282.863,243.118,326.723,265.533,334Z" fill="#ec1c24"/>
    <path id="Path_1096" data-name="Path 1096" d="M205.6,297.035s2.916,1.043,5.185,1.612c0,0,11.052,25.9,42.749,35.31C253.531,333.957,219.935,335.691,205.6,297.035Z" fill="#fff"/>
    <path id="Path_1097" data-name="Path 1097" d="M215.116,298.84s3.1-2.2,3.4-9.248l-3.981-.132S215.655,296.748,215.116,298.84Z" fill="#fff"/>
    <path id="Path_1098" data-name="Path 1098" d="M222.726,290.493s1.875-4.594,4.23-3.465l-2.02-4.165A10.982,10.982,0,0,0,222.726,290.493Z" fill="#fff"/>
    <path id="Path_1099" data-name="Path 1099" d="M226.188,303.275c1.017,2.161,2.181,4.214,3.386,6.23a63.714,63.714,0,0,0,3.943,5.813,58.816,58.816,0,0,0,4.521,5.369c1.589,1.732,3.328,3.315,5.084,4.945a30.668,30.668,0,0,1-5.865-4.142,35.325,35.325,0,0,1-4.885-5.309,37.1,37.1,0,0,1-3.777-6.142A28.506,28.506,0,0,1,226.188,303.275Z"/>
    <path id="Path_1100" data-name="Path 1100" d="M223.909,281.982a10.366,10.366,0,0,0-1.877,4.214,18.165,18.165,0,0,0-.364,2.115c-.022.193-.037.382-.055.572q-.333-.067-.661-.123c-.734-.117-1.454-.2-2.168-.241a37.909,37.909,0,0,0-4.264-.061l-1.549.061.645,1.349a7.5,7.5,0,0,1,.516,2c.108.742.184,1.5.232,2.275.086,1.375.1,2.775.068,4.16a6.861,6.861,0,0,1-1.675.016,21.556,21.556,0,0,1-2.352-.367,42.224,42.224,0,0,1-4.646-1.341l-.893-.313.29.864a67.775,67.775,0,0,0,8.865,17.078,51.113,51.113,0,0,0,13.924,13.5,49.555,49.555,0,0,0,18.37,6.342,65.219,65.219,0,0,0,9.636.743c1.608.015,3.215-.053,4.815-.157.8-.041,1.6-.121,2.4-.189l1.194-.15.6-.085.3-.045a.853.853,0,0,0,.426-.176c-.591-.275-1.246-.677-1.971-1-.65-.33-1.225-.661-1.837-.989a33.653,33.653,0,0,1-3.412-2.3,50.658,50.658,0,0,1-6.121-5.481,100.746,100.746,0,0,1-10.175-12.952c-3.074-4.571-5.868-9.332-8.541-14.163-2.63-4.844-5.223-9.767-7.432-14.783l-.916-2.077Zm7.025,16.614a130.931,130.931,0,0,0,8.949,14.284,82.124,82.124,0,0,0,11.147,12.706,48.487,48.487,0,0,0,6.743,5.141,34.284,34.284,0,0,0,3.74,1.995c.648.263,1.315.566,1.94.791.441.129.935.225,1.455.353h-.581l-1.191-.02c-.795-.018-1.587-.025-2.379-.071-1.584-.065-3.165-.185-4.737-.351a82.131,82.131,0,0,1-9.342-1.385,60.337,60.337,0,0,1-9.015-2.533,47.31,47.31,0,0,1-8.381-3.959A60.036,60.036,0,0,1,215.2,313.324a48.123,48.123,0,0,1-8.865-15.539c1.256.455,2.518.871,3.816,1.217a22.627,22.627,0,0,0,2.461.536,6.581,6.581,0,0,0,2.724-.045l.423-.111.045-.5c.143-1.6.219-3.183.236-4.794.006-.8-.016-1.615-.079-2.439-.033-.371-.071-.742-.132-1.122.922.053,1.845.119,2.749.22.665.074,1.319.177,1.948.306a6.54,6.54,0,0,1,1.652.521l1.629.883.134-1.93c.041-.588.125-1.25.226-1.868s.233-1.246.391-1.844c.073-.283.156-.563.248-.837C226.677,290.285,228.688,294.487,230.934,298.6Z"/>
  </g>
</svg>
