<svg xmlns="http://www.w3.org/2000/svg" width="781.53" height="81.096" viewBox="0 0 781.53 81.096">
  <path id="Path_6349" data-name="Path 6349" d="M7.848-77.172H37.714a52.7,52.7,0,0,1,11.173,1.144,26.507,26.507,0,0,1,9.265,3.815,19.01,19.01,0,0,1,6.322,7.194,24.362,24.362,0,0,1,2.343,11.281,22.65,22.65,0,0,1-4.251,13.9q-4.251,5.722-12.426,7.248L69.76,0H49.377L33.245-30.847H24.852V0h-17Zm17,31.937H34.88q2.289,0,4.851-.164a15.194,15.194,0,0,0,4.632-.981A8.013,8.013,0,0,0,47.8-48.941a7.8,7.8,0,0,0,1.363-4.9,8.144,8.144,0,0,0-1.2-4.687A7.993,7.993,0,0,0,44.908-61.2a13.539,13.539,0,0,0-4.251-1.253,34.673,34.673,0,0,0-4.687-.327H24.852ZM79.134-77.172h52.429v15.7H96.138v14.388H129.6v15.7H96.138v15.7h37.387V0H79.134ZM217.019-5.45a61.556,61.556,0,0,1-15.7,5.668,79.709,79.709,0,0,1-16.677,1.744A47.544,47.544,0,0,1,167.969-.872,38.176,38.176,0,0,1,154.78-8.993,36.816,36.816,0,0,1,146.115-21.8a43.585,43.585,0,0,1-3.107-16.786,43.585,43.585,0,0,1,3.107-16.786A36.816,36.816,0,0,1,154.78-68.18a38.176,38.176,0,0,1,13.189-8.12,47.544,47.544,0,0,1,16.677-2.834A61.723,61.723,0,0,1,201.7-76.9a33.4,33.4,0,0,1,13.68,7.684l-11.99,13.08a23.889,23.889,0,0,0-7.848-5.45,27.968,27.968,0,0,0-10.9-1.853,25.255,25.255,0,0,0-9.865,1.853,22.138,22.138,0,0,0-7.575,5.177,22.742,22.742,0,0,0-4.851,7.9,28.432,28.432,0,0,0-1.689,9.919,28.3,28.3,0,0,0,1.689,9.973,22.844,22.844,0,0,0,4.851,7.848,22.139,22.139,0,0,0,7.575,5.178,25.255,25.255,0,0,0,9.865,1.853,32.5,32.5,0,0,0,9.592-1.253,36.2,36.2,0,0,0,6.431-2.562V-30.084H186.826v-15.7h30.193Zm14.715-71.722h17V0h-17Zm70.632,18.857a12.11,12.11,0,0,0-5.614-3.869,20.118,20.118,0,0,0-6.7-1.254,17.565,17.565,0,0,0-3.815.436,14.621,14.621,0,0,0-3.706,1.362,8.078,8.078,0,0,0-2.834,2.452,6.209,6.209,0,0,0-1.09,3.706,6.143,6.143,0,0,0,2.616,5.341,24.772,24.772,0,0,0,6.595,3.161q3.978,1.308,8.556,2.616a35.257,35.257,0,0,1,8.557,3.706,20.257,20.257,0,0,1,6.594,6.431q2.616,4.033,2.616,10.791a24.809,24.809,0,0,1-2.4,11.227,22.782,22.782,0,0,1-6.486,7.957A27.6,27.6,0,0,1,295.772.436a41.665,41.665,0,0,1-11.391,1.526A41.321,41.321,0,0,1,270.429-.327a34.962,34.962,0,0,1-11.99-7.412l12.1-13.3a17.662,17.662,0,0,0,6.594,5.4,18.825,18.825,0,0,0,8.229,1.908,18.619,18.619,0,0,0,4.2-.491,13.669,13.669,0,0,0,3.815-1.472A8.227,8.227,0,0,0,296.1-18.2a6.251,6.251,0,0,0,1.035-3.6,6.526,6.526,0,0,0-2.671-5.5,24.612,24.612,0,0,0-6.7-3.433q-4.033-1.417-8.72-2.834a39.159,39.159,0,0,1-8.72-3.815,21.015,21.015,0,0,1-6.7-6.322q-2.671-3.924-2.671-10.355a23.182,23.182,0,0,1,2.452-10.9,23.647,23.647,0,0,1,6.54-7.848,28.431,28.431,0,0,1,9.428-4.742,38.594,38.594,0,0,1,11.009-1.58,43.287,43.287,0,0,1,12.644,1.853,29.163,29.163,0,0,1,11.009,6.213Zm39.349-3.815H319.7V-77.172h61.04V-62.13H358.719V0h-17Zm47.633-15.042h29.866a52.7,52.7,0,0,1,11.173,1.144,26.507,26.507,0,0,1,9.265,3.815,19.01,19.01,0,0,1,6.322,7.194,24.362,24.362,0,0,1,2.343,11.281,22.65,22.65,0,0,1-4.251,13.9q-4.251,5.722-12.426,7.248L451.26,0H430.877L414.745-30.847h-8.393V0h-17Zm17,31.937H416.38q2.289,0,4.85-.164a15.194,15.194,0,0,0,4.633-.981,8.013,8.013,0,0,0,3.434-2.562,7.8,7.8,0,0,0,1.362-4.9,8.144,8.144,0,0,0-1.2-4.687,7.993,7.993,0,0,0-3.052-2.671,13.539,13.539,0,0,0-4.251-1.253,34.673,34.673,0,0,0-4.687-.327H406.352Zm79.025-31.937h14.061L533.01,0H513.826l-6.649-16.35H477.2L470.771,0H452.023Zm6.54,22.454-9.374,23.98H501.4Zm53.737-7.412H523.636V-77.172h61.04V-62.13H562.658V0h-17Zm47.415-15.042h17V0h-17Zm28.34,38.586a43.586,43.586,0,0,1,3.107-16.786,36.816,36.816,0,0,1,8.666-12.808A38.176,38.176,0,0,1,646.37-76.3a47.544,47.544,0,0,1,16.677-2.834A47.544,47.544,0,0,1,679.724-76.3a38.176,38.176,0,0,1,13.189,8.12,36.816,36.816,0,0,1,8.665,12.808,43.586,43.586,0,0,1,3.107,16.786A43.586,43.586,0,0,1,701.578-21.8a36.816,36.816,0,0,1-8.665,12.808A38.176,38.176,0,0,1,679.724-.872a47.544,47.544,0,0,1-16.677,2.834A47.544,47.544,0,0,1,646.37-.872a38.175,38.175,0,0,1-13.189-8.121A36.816,36.816,0,0,1,624.516-21.8,43.586,43.586,0,0,1,621.409-38.586Zm17.658,0a28.3,28.3,0,0,0,1.69,9.973,22.843,22.843,0,0,0,4.85,7.848,22.139,22.139,0,0,0,7.576,5.178,25.255,25.255,0,0,0,9.865,1.853,25.255,25.255,0,0,0,9.865-1.853,22.139,22.139,0,0,0,7.576-5.178,22.844,22.844,0,0,0,4.851-7.848,28.305,28.305,0,0,0,1.689-9.973,28.433,28.433,0,0,0-1.689-9.919,22.742,22.742,0,0,0-4.851-7.9,22.139,22.139,0,0,0-7.576-5.177,25.255,25.255,0,0,0-9.865-1.853,25.255,25.255,0,0,0-9.865,1.853,22.139,22.139,0,0,0-7.576,5.177,22.741,22.741,0,0,0-4.85,7.9A28.431,28.431,0,0,0,639.067-38.586Zm77.172-38.586h23.108l32.809,53.628h.218V-77.172h17V0H767.142L733.461-54.936h-.218V0h-17Z" transform="translate(-7.848 79.134)" fill="#fe8200"/>
</svg>
