<svg xmlns="http://www.w3.org/2000/svg" width="179.454" height="107.343" viewBox="0 0 179.454 107.343">
  <g id="strokes-red-1" transform="translate(-4231.066 -1390.948)">
    <path id="Path_1425" data-name="Path 1425" d="M4231.22,1452.351s17.724-3.71,29.677-8.656,18.135-2.474,18.548,1.649-3.71,5.977-27.617,9.067S4231.22,1452.351,4231.22,1452.351Z" transform="translate(0 18.072)" fill="#ec1c24"/>
    <path id="Path_1426" data-name="Path 1426" d="M4282.867,1441.2s19.579-4.946,29.059-11.746,13.808-10.1,17.723-9.479,4.947,5.357-8.037,11.541S4279.57,1448.417,4282.867,1441.2Z" transform="translate(18.629 10.465)" fill="#ec1c24"/>
    <path id="Path_1427" data-name="Path 1427" d="M4297.785,1455.4s10.1-.825,27.2-9.893,25.555-15.662,30.5-18.547,11.128,3.3,1.854,10.716S4298.4,1465.5,4297.785,1455.4Z" transform="translate(24.113 12.755)" fill="#ec1c24"/>
    <path id="Path_1428" data-name="Path 1428" d="M4330.18,1433.533s27.822-23.081,31.531-35.447,11.334-6.182,11.334,0S4351.407,1430.648,4330.18,1433.533Z" transform="translate(35.821)" fill="#ec1c24"/>
    <path id="Path_1429" data-name="Path 1429" d="M4333.662,1459.031s22.463-12.778,27.614-22.052,12.366-8.449,12.159-3.3S4342.936,1461.709,4333.662,1459.031Z" transform="translate(37.08 14.071)" fill="#ec1c24"/>
    <path id="Path_1430" data-name="Path 1430" d="M4283.1,1469.533s30.707,0,41.216-5.357,17.312-6.595,18.136-.825-15.25,7.625-33.179,9.687S4283.1,1469.533,4283.1,1469.533Z" transform="translate(18.807 24.796)" fill="#ec1c24"/>
  </g>
</svg>
