<svg xmlns="http://www.w3.org/2000/svg" width="359.978" height="287.963" viewBox="0 0 359.978 287.963">
  <g id="wave-2" transform="translate(237.41 320.358) rotate(-140)">
    <path id="Path_1279" data-name="Path 1279" d="M0,111.27S43.339,95.511,50.561,66.618,82.736,6.866,134.609,6.866c0,0-47.277-17.073-76.169,2.626s-36.114,34.8-42.024,63.693S0,111.27,0,111.27Z" transform="translate(26.23 110.67)" fill="#52d5b1"/>
    <path id="Path_1280" data-name="Path 1280" d="M10.471,114.909S.622,72.228,28.2,52.53,67.6,21.668,72.194,0c0,0-15.1,18.385-44.651,24.3S-7.914,75.512,10.471,114.909Z" transform="translate(0 69.602)" fill="#52d5b1"/>
    <path id="Path_1281" data-name="Path 1281" d="M1.442,67.633S21.14,46.62,52.657,40.711,76.953,0,76.953,0,67.76,19.7,39.525,16.415-5.125,43.337,1.442,67.633Z" transform="translate(50.398 0)" fill="#52d5b1"/>
    <path id="Path_1282" data-name="Path 1282" d="M0,19.946S17.729,23.887,33.488,7.47s53.187-.656,53.187-.656S60.41,8.783,60.41,22.573,0,19.946,0,19.946Z" transform="translate(141.796 11.571)" fill="#52d5b1"/>
    <path id="Path_1283" data-name="Path 1283" d="M0,27.5S25.61-4.673,54.5.58s41.367,17.071,61.723,1.97c0,0-12.476,33.487-39.4,30.2S48.591-1.391,0,27.5Z" transform="translate(95.832 63.113)" fill="#52d5b1"/>
    <path id="Path_1284" data-name="Path 1284" d="M0,7.239S24.952-4.58,45.307,1.986,62.38,21.028,87.987,19.715c0,0-28.891,7.223-42.681,3.283S18.385.016,0,7.239Z" transform="translate(228.471 38.068)" fill="#52d5b1"/>
    <path id="Path_1285" data-name="Path 1285" d="M0,5.374S29.549-5.788,45.308,4.061,71.574,17.85,91.272,16.537c0,0-19.7,15.759-49.248,11.82S30.863,6.688,0,5.374Z" transform="translate(233.067 96.402)" fill="#52d5b1"/>
    <path id="Path_1286" data-name="Path 1286" d="M0,7.481s28.891-13.133,34.144-4.6S48.59,13.39,57.782,13.39s-15.1,11.82-30.2,7.88S0,7.481,0,7.481Z" transform="translate(317.116 79.85)" fill="#52d5b1"/>
  </g>
</svg>
